<svg width="210" height="61" viewBox="0 0 210 61" fill="none" xmlns="http://www.w3.org/2000/svg">
<g clip-path="url(#clip0_2758_71)">
<path d="M8.8623 31.6055L10.0626 36.6801L10.8128 31.4551L8.8623 31.6055Z" fill="#EEB111"/>
<path d="M4.51624 46.734C4.50624 47.3308 4.79632 47.431 5.16141 46.9647L6.2717 45.5406C6.6368 45.0693 6.95688 44.2018 6.98689 43.6051L7.53703 31.9015C7.56704 31.3048 7.10192 30.8535 6.51177 30.8986L5.86159 30.9488C5.27144 30.9939 4.77631 31.5154 4.76631 32.1121L4.51624 46.734Z" fill="#EEB111"/>
<path d="M5.99161 13.3533C6.3367 13.8396 6.41672 14.6771 6.16665 15.2186L0.605197 27.203C0.355132 27.7445 0.620201 28.0655 1.19535 27.92L1.66547 27.7997C2.24063 27.6543 2.95081 27.1127 3.24589 26.5962L4.39619 24.5654C4.69127 24.0489 4.92133 24.1091 4.91132 24.7058L4.89132 25.9143C4.88132 26.511 5.34144 26.8771 5.92159 26.7316L10.1377 25.6686C10.7128 25.5232 11.1179 24.9214 11.0329 24.3348L10.3377 19.4257C10.2527 18.834 10.6628 18.2523 11.243 18.132L11.7481 18.0267C12.3283 17.9063 12.9184 17.5804 13.0535 17.3046C13.1935 17.0288 13.6886 15.9808 13.6886 15.4593C13.6886 14.9378 13.2135 14.4013 12.6333 14.2759L8.76733 13.4285C8.18718 13.2981 7.8771 12.7365 8.08215 12.1799C8.08215 12.1799 8.42224 11.2472 8.53727 9.92843C8.75233 7.47138 8.20219 5.4205 7.30695 5.34027C6.41172 5.26505 5.51648 7.19057 5.30143 9.64261C5.08637 12.0997 5.9766 13.3482 5.9766 13.3482L5.99161 13.3533Z" fill="#EEB111"/>
<path d="M18.0897 25.4178C18.3348 25.3727 18.8399 25.2574 19.215 25.1521L19.5251 24.9665C20.5754 24.3397 21.1605 23.0911 21.1655 21.642C21.1655 20.7093 20.9155 19.7014 20.3953 18.7637C19.4301 17.0237 17.8097 16.0309 16.3643 16.0359C15.8191 16.0359 15.299 16.1713 14.8239 16.4571L14.6388 16.5674C14.3688 16.7379 13.9086 17.2995 13.6186 17.816C13.6186 17.816 13.1834 18.5932 13.1784 19.7766C13.1784 20.7143 13.4285 21.7172 13.9536 22.6549C14.3688 23.402 14.7088 23.723 14.7088 23.723C15.139 24.1291 15.6341 24.5704 15.8041 24.7008C15.9742 24.8311 15.6441 25.0568 15.0639 25.2022L1.02026 28.7424C0.44011 28.8878 -0.0150096 29.4945 -5.65965e-06 30.0862L0.0300022 31.1894C0.0450061 31.7861 0.545137 32.2374 1.13529 32.1923L3.70596 31.9967C4.29612 31.9516 5.26637 31.8814 5.86153 31.8362L6.5117 31.7861C7.10185 31.741 7.87706 31.6808 8.22215 31.6557C8.57224 31.6306 9.29743 31.5755 9.83257 31.5354C10.3677 31.4953 10.7378 31.9415 10.6528 32.5332L10.2127 35.6121C10.1276 36.2038 9.98761 37.1665 9.90259 37.7582L7.77203 52.5807C7.68701 53.1724 8.07711 53.8093 8.64226 54.0048L12.2082 55.2233C12.7683 55.4139 13.3735 55.108 13.5435 54.5364L17.4946 41.4037C17.6646 40.832 17.9597 40.832 18.1447 41.3987L23.6362 58.2169C23.8212 58.7835 24.4314 59.4053 24.9965 59.5959L28.9776 60.9548C29.5377 61.1453 29.9028 60.8294 29.7778 60.2427L24.7815 36.2238C24.6615 35.6422 24.9765 35.4115 25.4867 35.7174L35.6343 41.7798C36.1445 42.0856 36.5646 41.8449 36.5646 41.2533V39.8893C36.5646 39.2926 36.1695 38.5254 35.6793 38.1845L18.5248 26.1299C18.0397 25.7889 17.8397 25.473 18.0847 25.4279L18.0897 25.4178Z" fill="#E51937"/>
<path d="M59.8757 13.5688C59.5406 13.0774 59.5756 12.3052 59.9607 11.8489C59.9607 11.8489 61.171 10.4098 60.8559 8.01288C60.5408 5.61601 59.3105 3.81584 58.1152 3.99636C56.9199 4.17688 56.2047 6.26286 56.5248 8.65974C56.6898 9.91835 57.1399 10.7858 57.1399 10.7858C57.415 11.3123 57.1649 11.8338 56.5798 11.9492L50.5782 13.0925C49.9931 13.2028 49.5179 13.7794 49.5179 14.3761V15.4994C49.5179 16.0961 49.9931 16.6176 50.5682 16.6577C51.1484 16.6978 51.9486 16.3719 52.3487 15.9306C52.3487 15.9306 53.7841 14.3461 55.1794 14.331C55.4345 14.331 55.6846 14.3611 55.9396 14.4313C57.5951 14.8876 58.5353 16.6577 58.5353 18.6484C58.5353 19.22 58.4603 19.8167 58.3002 20.4135C58.0552 21.3211 57.7151 21.8676 57.7151 21.8676C57.395 22.3691 57.6101 22.9006 58.1852 23.041L60.7309 23.6728C61.306 23.8132 61.7461 23.4472 61.7111 22.8504V22.8103C61.6711 22.2186 61.9462 22.1083 62.3213 22.5696L63.1615 23.6026C63.5366 24.0639 64.3168 24.5604 64.892 24.7008L66.9825 25.2172C67.5577 25.3576 67.7577 25.0718 67.4176 24.5854L59.8757 13.5688ZM56.8249 23.9636C56.2497 23.8182 55.8946 24.1742 56.0447 24.7509L60.4408 41.9803C60.5858 42.557 61.061 43.3643 61.4961 43.7705L62.3563 44.5778C62.7864 44.984 63.1115 44.8335 63.0765 44.2418L61.9612 26.3003C61.9212 25.7036 61.4211 25.1019 60.8459 24.9615L56.8299 23.9636H56.8249Z" fill="#49A942"/>
<path d="M68.2128 27.3986C68.2678 26.8069 67.8377 26.2051 67.2625 26.0597L56.7648 23.4522C56.1896 23.3068 55.8195 23.0862 55.9496 22.9558C56.0796 22.8254 56.4747 22.334 56.8348 21.8577C56.8348 21.8577 57.3049 21.2359 57.575 20.2079C57.72 19.6714 57.7851 19.1449 57.7851 18.6384C57.7851 16.8583 56.9498 15.4593 55.7445 15.1484C55.5595 15.0983 55.3694 15.0732 55.1794 15.0732C53.784 15.0532 52.2036 16.4722 51.6384 18.6084C51.4934 19.1449 51.4234 19.6714 51.4234 20.1728C51.4234 21.958 52.6387 22.9709 52.6387 22.9709C53.0938 23.352 53.619 23.703 53.804 23.7531C53.9891 23.8033 53.779 24.1643 53.3339 24.5604L38.1249 38.0391C37.6798 38.4352 37.3147 39.2425 37.3147 39.8393V41.1731C37.3147 41.7698 37.7048 41.9654 38.1849 41.6143L47.0773 35.0305C47.5574 34.6744 47.8575 34.865 47.7574 35.4517L43.4513 59.4555C43.3463 60.0422 43.6964 60.303 44.2265 60.0322L47.7624 58.2421C48.2926 57.9713 48.8527 57.2843 49.0028 56.7077L53.4239 39.9446C53.574 39.3679 53.824 39.3679 53.9741 39.9446L57.1849 52.285C57.3349 52.8616 57.8901 53.1123 58.4202 52.8466L60.9859 51.5479C61.516 51.2771 61.8961 50.5751 61.8261 49.9834L59.5755 30.6328C59.5055 30.0411 59.9356 29.5598 60.5308 29.5598H66.9375C67.5326 29.5598 68.0627 29.0734 68.1178 28.4817L68.2178 27.3835L68.2128 27.3986Z" fill="#004990"/>
<path d="M47.8625 12.9522L34.2489 8.715C33.7838 8.56958 33.6338 8.22359 33.8238 7.8776C35.0241 7.12544 35.8294 5.79162 35.8294 4.26223C35.8294 1.90547 33.9289 0 31.5782 0C29.2276 0 27.3271 1.90547 27.3271 4.26223C27.3271 5.55092 27.9023 6.70423 28.8025 7.48648C28.9776 7.65195 29.1076 7.74221 29.1076 7.74221C29.6027 8.07316 29.5527 8.51443 28.9976 8.73005L15.334 13.955C14.7788 14.1656 14.3237 14.6921 14.3237 15.1184C14.3237 15.5446 14.3587 15.8705 14.3988 15.8404L14.4388 15.8154C15.0289 15.4543 15.6941 15.2889 16.3643 15.2889C16.5793 15.2889 16.7944 15.3089 17.0094 15.344C17.1895 15.3741 17.3645 15.4192 17.5396 15.4694C17.5746 15.4794 17.6046 15.4844 17.6396 15.4945L18.0597 15.6198C18.4998 15.8605 19.325 15.9106 19.8902 15.7351L24.0413 14.4364C24.6064 14.2609 24.9765 14.5919 24.8615 15.1785L22.5409 26.8119C22.4259 27.3986 22.7259 28.1558 23.2161 28.4968L24.0963 29.1185C24.5814 29.4595 25.3816 30.0211 25.8668 30.3621L26.622 30.8886C27.1071 31.2296 27.6722 31.0541 27.8773 30.4925L31.4632 20.5891C31.6683 20.0275 32.0134 20.0224 32.2384 20.574L36.6996 31.5305C36.9246 32.082 37.5948 32.5083 38.185 32.4782L41.7459 32.3027C42.3411 32.2726 42.7162 31.7762 42.5861 31.1945L38.8251 14.7022C38.6951 14.1205 39.0552 13.7745 39.6254 13.935L47.8625 16.2015C48.4327 16.3619 48.9028 16.0009 48.9028 15.4042V14.3662C48.9028 13.7695 48.4377 13.1377 47.8725 12.9622L47.8625 12.9522Z" fill="#78278B"/>
<path d="M85.2024 42.9532C85.0673 43.7956 84.8123 44.3121 84.4372 44.7133C83.897 45.0793 82.6317 45.4003 81.0913 45.4003C75.7699 45.4003 72.8491 42.2412 72.8491 37.7684C72.8491 35.6723 73.5393 33.5061 75.3448 31.8965C77.0252 30.4072 79.0507 29.8857 81.1113 29.8857C83.3319 29.8857 84.9173 30.5878 85.3824 31.0942C85.4024 31.6007 85.2324 32.0269 84.9723 32.3127C84.7822 32.5133 84.4472 32.5434 83.917 32.3478C83.3569 32.077 82.3766 31.7762 80.9862 31.7762C78.2155 31.7762 75.6999 33.7769 75.6999 37.6029C75.6999 40.8723 77.7754 43.4898 81.5764 43.4898C83.1018 43.4898 84.4772 43.1538 85.0873 42.9181L85.2024 42.9582V42.9532Z" fill="#231F20"/>
<path d="M90.3736 34.3486C93.9696 34.3486 95.705 37.0063 95.705 39.7341C95.705 41.8451 94.8348 43.3093 93.8346 44.1518C92.9443 44.9039 91.759 45.3352 90.3937 45.3352C87.2628 45.3352 85.0723 43.174 85.0723 39.8945C85.0723 38.1194 85.7925 36.5199 87.0378 35.522C87.903 34.7899 89.1033 34.3486 90.3586 34.3486H90.3837H90.3736ZM90.3286 36.0585C88.8783 36.0585 87.778 37.4626 87.778 39.704C87.778 42.2914 89.0683 43.6453 90.5537 43.6202C92.0191 43.6202 93.0344 42.2262 93.0344 39.8594C93.0344 37.6381 91.9541 36.0585 90.3536 36.0585H90.3286Z" fill="#231F20"/>
<path d="M96.9655 37.0063C96.9655 36.4948 96.7304 36.1037 96.2903 35.9332V35.537C96.4153 35.2512 96.7704 34.7899 97.0555 34.5041C97.2755 34.4238 97.5156 34.3486 97.7557 34.3486C98.831 34.3486 99.3261 35.3916 99.3611 36.7656C100.056 35.2011 101.067 34.3486 102.237 34.3486C102.777 34.3486 103.267 34.6194 103.457 34.8651C103.497 35.2613 103.357 36.1939 102.972 36.7355C102.792 36.9962 102.527 37.1567 102.202 37.0514C101.817 36.926 101.557 36.916 101.327 36.916C100.886 36.916 100.161 37.3372 99.7562 38.3802C99.5962 38.7814 99.5261 39.0672 99.5261 39.5887V44.4877C99.5261 44.8538 99.4711 45.0142 99.031 45.0694C98.2958 45.1697 97.6156 45.1897 96.8904 45.1897C96.9405 44.0615 96.9605 42.6224 96.9605 40.8623V37.0063H96.9655Z" fill="#231F20"/>
<path d="M111.404 43.1989C111.389 44.0814 110.459 44.9188 110.129 45.0392C109.904 45.1344 109.119 45.335 108.263 45.335C107.238 45.335 105.758 45.1846 104.547 44.0664C103.442 43.0635 103.032 41.509 103.032 39.9947C103.032 37.0914 104.887 34.3535 107.953 34.3535C110.849 34.3535 111.929 36.3593 111.994 38.3951C111.994 38.696 111.944 39.047 111.899 39.2275C111.829 39.5935 110.884 39.9847 109.999 40.1953C109.399 40.3056 107.008 40.3357 105.613 40.2805C105.648 42.4668 107.233 43.4446 108.999 43.4446C110.159 43.4446 110.944 43.1788 111.254 43.0485L111.409 43.2039L111.404 43.1989ZM107.683 36.0032C106.758 36.0032 105.768 36.9409 105.668 38.6609C106.838 38.7261 108.648 38.691 109.169 38.6609C109.384 38.6559 109.489 38.4051 109.489 38.1644C109.504 36.9008 108.899 36.0032 107.708 36.0032H107.683Z" fill="#231F20"/>
<path d="M115.865 33.3707C115.865 31.7861 115.84 30.8133 115.79 30.362C116.201 30.2918 117.636 30.1715 118.086 30.1715C118.476 30.1715 118.526 30.362 118.526 31.4401V37.1916C120.402 35.1458 123.012 32.1572 124.803 30.0562C125.133 30.0562 125.813 30.0862 126.428 30.2066C127.113 30.337 127.183 30.6629 126.638 31.3097C125.428 32.6586 122.937 35.3915 121.342 37.1365C122.602 38.8915 125.923 43.1938 127.533 44.8386L127.458 44.9639C127.198 45.1244 126.278 45.2347 125.528 45.2347C124.823 45.2347 124.323 45.0742 123.557 44.1365C122.407 42.7927 118.986 38.1895 118.531 37.4975V42.0806C118.531 43.7404 118.576 44.5227 118.601 44.994C118.241 45.1043 116.826 45.1846 116.346 45.1846C116 45.1846 115.87 45.1144 115.87 44.7433V33.3656L115.865 33.3707Z" fill="#231F20"/>
<path d="M134.305 38.4753C134.305 36.9209 133.63 36.3593 132.635 36.3593C131.64 36.3593 130.839 37.0964 130.344 37.7733V44.4675C130.344 44.9188 130.274 45.0241 129.819 45.0843C129.099 45.1846 128.459 45.1796 127.709 45.1946C127.754 44.0664 127.779 42.6273 127.779 40.8672V37.0362C127.779 36.3793 127.548 36.0584 127.218 35.913V35.5068C127.438 35.1307 127.769 34.7296 128.074 34.4538C128.304 34.4037 128.539 34.3635 128.774 34.3936C129.704 34.4588 130.124 35.2461 130.239 35.9932C130.799 35.4818 131.219 35.1157 131.825 34.7697C132.26 34.524 132.8 34.3535 133.4 34.3535C136.251 34.3535 136.881 36.4646 136.881 38.3299V41.7848C136.881 43.0585 136.916 44.2569 136.961 45.0041C136.461 45.0642 135.616 45.1946 134.73 45.1946C134.415 45.1946 134.3 45.0693 134.3 44.7885L134.31 38.4804L134.305 38.4753Z" fill="#231F20"/>
<path d="M143.293 34.3486C146.889 34.3486 148.619 37.0063 148.619 39.7341C148.619 41.8451 147.744 43.3093 146.743 44.1518C145.858 44.9039 144.668 45.3352 143.303 45.3352C140.172 45.3352 137.981 43.174 137.981 39.8945C137.981 38.1194 138.701 36.5199 139.947 35.522C140.812 34.7899 142.012 34.3486 143.268 34.3486H143.293ZM143.243 36.0585C141.792 36.0585 140.692 37.4626 140.692 39.704C140.692 42.2914 141.982 43.6453 143.468 43.6202C144.938 43.6202 145.948 42.2262 145.948 39.8594C145.948 37.6381 144.868 36.0585 143.268 36.0585H143.248H143.243Z" fill="#231F20"/>
<path d="M150.539 34.3486C150.825 34.3486 150.96 34.5041 151.065 34.8751C151.645 36.7957 152.15 38.8064 153.025 42.1259C154.06 38.6109 154.52 37.1667 155.051 35.3365C155.021 35.1359 154.971 34.9403 154.931 34.7698C155.251 34.6495 156.326 34.3637 156.751 34.3637C157.091 34.3637 157.176 34.6345 157.326 35.186C157.761 36.8157 158.472 39.7241 159.117 42.161C160.207 38.6961 160.977 35.8379 161.297 34.3486C161.872 34.3637 162.628 34.4439 163.108 34.6395C163.378 34.7849 163.428 35.1559 163.158 35.9181C162.198 38.7513 161.252 41.3287 160.177 44.3523C160.007 44.8187 159.902 45.0092 159.482 45.1296C158.997 45.2549 158.367 45.3251 157.811 45.3352C157.156 42.7427 156.691 40.8824 155.951 38.1094C155.491 39.689 154.596 42.5522 153.995 44.3924C153.865 44.8387 153.71 45.0243 153.37 45.1245C152.875 45.2549 152.245 45.3251 151.735 45.3352C151.215 43.5601 150.404 41.0228 149.569 38.4153C148.999 36.7104 148.634 35.6975 148.344 34.9453C148.814 34.7197 149.969 34.3486 150.539 34.3486Z" fill="#231F20"/>
<path d="M164.028 31.8764C164.028 30.4824 163.978 29.8155 163.933 29.3391C164.388 29.1335 165.733 28.938 166.174 28.938C166.504 28.938 166.594 29.0583 166.594 30.4824V41.9202C166.594 43.0836 166.639 44.3622 166.689 45.0342C166.214 45.1545 164.643 45.2247 164.343 45.2247C164.118 45.2247 164.028 45.1545 164.028 44.9188V31.8814V31.8764Z" fill="#231F20"/>
<path d="M176.136 43.1989C176.121 44.0814 175.186 44.9188 174.866 45.0392C174.636 45.1344 173.851 45.335 172.995 45.335C171.975 45.335 170.49 45.1846 169.279 44.0664C168.169 43.0635 167.759 41.509 167.759 39.9947C167.759 37.0914 169.609 34.3535 172.68 34.3535C175.576 34.3535 176.651 36.3593 176.721 38.3951C176.721 38.696 176.671 39.047 176.626 39.2275C176.556 39.5935 175.611 39.9847 174.726 40.1953C174.126 40.3056 171.74 40.3357 170.345 40.2805C170.375 42.4668 171.96 43.4446 173.72 43.4446C174.886 43.4446 175.676 43.1788 175.981 43.0485L176.136 43.2039V43.1989ZM172.415 36.0032C171.485 36.0032 170.505 36.9409 170.395 38.6609C171.56 38.7261 173.375 38.691 173.896 38.6609C174.111 38.6559 174.216 38.4051 174.216 38.1644C174.231 36.9008 173.63 36.0032 172.435 36.0032H172.415Z" fill="#231F20"/>
<path d="M184.673 31.7562C184.673 30.4123 184.628 29.8357 184.568 29.3443C185.023 29.1587 186.379 28.9431 186.829 28.9431C187.144 28.9431 187.244 29.0635 187.244 30.4976V42.3315C187.244 43.3194 187.769 43.535 188.439 43.6102V44.237C188.169 44.7635 187.699 45.3351 187.209 45.3351C185.974 45.3351 185.269 44.6682 185.023 44.1066C184.083 44.8788 183.098 45.3351 182.003 45.3351C179.272 45.3351 177.196 43.4247 177.196 40.2205C177.196 38.3 177.932 36.7605 179.212 35.6925C180.247 34.825 181.603 34.3536 182.998 34.3536C183.668 34.3536 184.308 34.494 184.673 34.6645V31.7612V31.7562ZM184.673 36.5148C184.298 36.2842 183.713 36.0986 183.073 36.0986C181.508 36.0986 179.887 37.4024 179.887 39.8444C179.887 42.146 181.312 43.3444 182.753 43.3444C183.383 43.3444 184.173 43.0386 184.668 42.5772V36.5148H184.673Z" fill="#231F20"/>
<path d="M193.066 34.3486C194.236 34.3486 195.096 34.6595 195.661 35.0206C196.722 35.0206 198.027 34.8451 198.422 34.7548C198.462 34.9203 198.502 35.0958 198.502 35.3465C198.502 36.0485 198.327 36.6452 197.772 36.6904C197.347 36.6904 197.077 36.6904 196.667 36.7004C196.872 37.252 196.932 37.628 196.932 38.1144C196.932 40.416 195.071 41.7148 192.901 41.7148C192.485 41.7148 192.215 41.6847 191.95 41.6195C191.715 41.8 191.545 41.9555 191.38 42.1059C191.25 42.2112 191.18 42.3416 191.18 42.4118C191.18 42.7126 191.57 43.0636 192.5 43.1037C193.546 43.1439 194.626 43.1238 195.476 43.1639C197.777 43.2943 198.592 44.4927 198.592 45.9018C198.592 48.8151 195.781 50.1189 192.825 50.1189C190.07 50.1189 188.284 48.9756 188.284 47.1403C188.284 46.0221 189.355 45.3201 190.335 44.7786C189.41 44.4627 188.689 43.7356 188.634 42.7678C188.634 42.6675 188.689 42.5772 188.899 42.4569C189.46 42.1159 190.13 41.6095 190.545 41.2183C189.735 40.742 188.774 39.8093 188.774 38.2047C188.774 35.9532 190.615 34.3486 193.046 34.3486H193.066ZM190.72 46.7994C190.755 47.8774 191.85 48.4892 193.366 48.4892C194.881 48.4892 196.191 47.6518 196.191 46.5536C196.191 45.8817 195.796 45.3502 194.161 45.3051C193.341 45.27 192.7 45.275 192.24 45.3151C192.055 45.3151 191.91 45.3552 191.72 45.4505C191.18 45.7213 190.72 46.2177 190.72 46.7693V46.7943V46.7994ZM192.916 35.9031C191.94 35.9031 191.22 36.8257 191.22 37.9991C191.22 39.4031 192.07 40.1804 193.031 40.1804C194.121 40.1804 194.691 39.3129 194.691 38.0994C194.691 36.8859 194.171 35.8981 192.941 35.8981H192.911L192.916 35.9031Z" fill="#231F20"/>
<path d="M206.424 43.1989C206.404 44.0814 205.479 44.9188 205.149 45.0392C204.919 45.1344 204.138 45.335 203.278 45.335C202.253 45.335 200.773 45.1846 199.557 44.0664C198.452 43.0635 198.042 41.509 198.042 39.9947C198.042 37.0914 199.897 34.3535 202.963 34.3535C205.859 34.3535 206.934 36.3593 207.004 38.3951C207.004 38.696 206.954 39.047 206.904 39.2275C206.834 39.5935 205.889 39.9847 205.004 40.1953C204.404 40.3056 202.013 40.3357 200.623 40.2805C200.653 42.4668 202.238 43.4446 204.003 43.4446C205.169 43.4446 205.954 43.1788 206.259 43.0485L206.414 43.2039L206.424 43.1989ZM202.703 36.0032C201.778 36.0032 200.788 36.9409 200.688 38.6609C201.858 38.7261 203.668 38.691 204.188 38.6609C204.404 38.6559 204.509 38.4051 204.509 38.1644C204.524 36.9008 203.923 36.0032 202.733 36.0032H202.708H202.703Z" fill="#231F20"/>
<path d="M206.689 26.0046C208.705 26.0046 210 27.509 210 29.4044C210 31.2998 208.705 32.769 206.664 32.769C204.624 32.769 203.373 31.2497 203.373 29.4044C203.373 27.5591 204.624 26.0046 206.664 26.0046H206.689ZM206.634 26.7067C205.224 26.7067 204.229 27.875 204.229 29.3843C204.229 30.8937 205.224 32.0921 206.689 32.0921C208.155 32.0921 209.135 30.9538 209.135 29.3843C209.135 27.8148 208.14 26.7067 206.689 26.7067H206.634ZM206.169 31.0792H205.419V27.7446C205.729 27.7045 206.149 27.6443 206.549 27.6443C207.439 27.6443 207.974 27.9803 207.974 28.6673C207.974 29.0985 207.659 29.4244 207.314 29.5498C207.484 29.8607 207.964 30.5928 208.255 30.8836V31.0541C208.105 31.0792 207.914 31.1043 207.724 31.1043C207.479 31.1043 207.374 31.0291 207.289 30.9187C207.144 30.7182 206.909 30.3621 206.724 29.9911C206.609 29.7955 206.469 29.7103 206.169 29.7353V31.0792ZM206.169 29.274C206.394 29.274 206.599 29.274 206.784 29.2239C207.039 29.1436 207.159 28.9431 207.159 28.6974C207.159 28.3815 206.914 28.1809 206.569 28.1809C206.424 28.1809 206.259 28.206 206.169 28.231V29.274Z" fill="#231F20"/>
</g>
<defs>
<clipPath id="clip0_2758_71">
<rect width="210" height="61" fill="white"/>
</clipPath>
</defs>
</svg>
