<svg xmlns="http://www.w3.org/2000/svg" viewBox="0 0 399.41 114.24"><defs><style>.cls-1{isolation:isolate;}.cls-2,.cls-5{fill:#231f20;}.cls-3{fill:#2b5672;}.cls-3,.cls-4{mix-blend-mode:multiply;}.cls-4{fill:#509bd4;}.cls-5{font-size:16.72px;font-family:TrebuchetMS-Italic, Trebuchet MS;font-style:italic;}.cls-6{letter-spacing:-0.1em;}.cls-7{letter-spacing:0em;}.cls-8{letter-spacing:-0.04em;}</style></defs><title>GQM-logo-tagline</title><g class="cls-1"><g id="Layer_1" data-name="Layer 1"><path class="cls-2" d="M172.64,34.32c-2,1.79-6.77,6.83-17.77,6.83s-20.78-7.29-20.78-20.6S143.82,0,155,0c10.59,0,15.16,5.56,16.43,6.94l-6.19,5.39A13.24,13.24,0,0,0,155,7.75c-6.43,0-11.41,4.69-11.41,12.8s5.1,12.79,11.58,12.79,8.33-2.55,8.33-2.55v-5.9H155.1V17.77h17.54Z" transform="translate(-0.26)"/><path class="cls-2" d="M192.79,41.15c-9,0-15.86-5.61-15.86-14.82s6.83-14.87,15.86-14.87,15.8,5.67,15.8,14.87S201.81,41.15,192.79,41.15Zm0-22.4c-4.11,0-6.49,3.18-6.49,7.41s2.38,7.41,6.49,7.41,6.48-3.19,6.48-7.41S196.84,18.75,192.79,18.75Z" transform="translate(-0.26)"/><path class="cls-2" d="M230.12,19h-6.31V29.29c0,2.43.35,3,.81,3.53a2.64,2.64,0,0,0,2.2.69A8.64,8.64,0,0,0,229.6,33l.46,7.23a24.65,24.65,0,0,1-6.59.93c-3.3,0-5.5-1-6.95-2.66s-2-4.05-2-8.4V19h-4.06V12h4.06V4.28h9.31V12h6.31Z" transform="translate(-0.26)"/><path class="cls-2" d="M171.77,80.91l4.34,4.92-5.73,5-4.63-5.27a23.74,23.74,0,0,1-10.47,2.32c-11.87,0-21.19-7.7-21.19-20.61s9.32-20.66,21.19-20.66,21.18,7.76,21.18,20.66A20.48,20.48,0,0,1,171.77,80.91ZM155.28,54.64c-6.66,0-11.7,4.8-11.7,12.44s5,12.5,11.7,12.5a11.64,11.64,0,0,0,4.39-.81l-2.37-2.72L163,71l2.43,2.78A14.2,14.2,0,0,0,167,67.08C167,59.5,161.93,54.64,155.28,54.64Z" transform="translate(-0.26)"/><path class="cls-2" d="M208.53,87.22h-8.91L199.56,84a10.39,10.39,0,0,1-8.34,3.88c-4.1,0-6.71-1.45-8.16-3.36S181,80.05,181,75.94V58.69h9.26v16c0,3.3.93,5.56,4.22,5.56s4.81-2.61,4.81-6.37V58.69h9.26Z" transform="translate(-0.26)"/><path class="cls-2" d="M242.57,75.18H222.25c.41,4.11,3.53,6,7.29,6a16,16,0,0,0,8.57-2.73l3.65,4.81c-.93.69-4.69,4.63-13.55,4.63S213,82.42,213,73s6.95-14.81,15.4-14.81,14.29,5.61,14.29,14C242.68,73.51,242.57,75.18,242.57,75.18Zm-8.51-5.26a5.88,5.88,0,0,0-11.75,0Z" transform="translate(-0.26)"/><path class="cls-2" d="M265.37,85.37c-2.08,1.62-4.91,2.49-8.73,2.49a17.49,17.49,0,0,1-12-4.4l3.47-5.5a15.58,15.58,0,0,0,8.45,3.47c2.31,0,3.94-.57,3.94-2.43s-4.17-2.78-5.21-3.12a29.68,29.68,0,0,1-4.05-1.33,7.67,7.67,0,0,1-4.86-7.47c0-5.55,4.86-9,10.82-9s9.31,2.2,10.94,3.53l-3,5.44a14,14,0,0,0-7.18-2.78c-2.2,0-3.42.58-3.42,2.09s2.2,2.2,4.17,2.78a41.9,41.9,0,0,1,4,1.33,11.18,11.18,0,0,1,3.71,2.14,8,8,0,0,1,2.31,5.78A8.6,8.6,0,0,1,265.37,85.37Z" transform="translate(-0.26)"/><path class="cls-2" d="M290.09,65.75h-6.31V76c0,2.43.35,3,.81,3.53a2.61,2.61,0,0,0,2.2.7,8.64,8.64,0,0,0,2.78-.52l.46,7.23a24.65,24.65,0,0,1-6.59.93c-3.3,0-5.5-1-6.95-2.66s-2-4-2-8.4v-11h-4.06v-7h4.06V51h9.31v7.76h6.31Z" transform="translate(-0.26)"/><path class="cls-2" d="M298.54,55.39c-3.12,0-5.26-1.91-5.26-4.8s2.14-4.81,5.26-4.81,5.27,2,5.27,4.81S301.67,55.39,298.54,55.39Zm4.64,31.83h-9.27V58.69h9.27Z" transform="translate(-0.26)"/><path class="cls-2" d="M323.61,87.86c-9,0-15.86-5.61-15.86-14.82s6.83-14.87,15.86-14.87,15.8,5.67,15.8,14.87S332.63,87.86,323.61,87.86Zm0-22.4c-4.11,0-6.48,3.18-6.48,7.41s2.37,7.41,6.48,7.41,6.48-3.19,6.48-7.41S327.66,65.46,323.61,65.46Z" transform="translate(-0.26)"/><path class="cls-2" d="M371.94,87.22h-9.26V72.35c0-3.76-.58-6.6-4.4-6.6-4,0-5.09,3.24-5.09,7.35V87.22h-9.26V58.69h9.26l-.06,4.11h.12a9.23,9.23,0,0,1,8.27-4.63c8.28,0,10.42,5.32,10.42,12.21Z" transform="translate(-0.26)"/><path class="cls-2" d="M396.31,85.37c-2.08,1.62-4.92,2.49-8.74,2.49a17.51,17.51,0,0,1-12-4.4L379,78a15.52,15.52,0,0,0,8.44,3.47c2.32,0,3.94-.57,3.94-2.43s-4.17-2.78-5.21-3.12a29.68,29.68,0,0,1-4.05-1.33,7.67,7.67,0,0,1-4.86-7.47c0-5.55,4.86-9,10.82-9s9.32,2.2,10.94,3.53l-3,5.44a14,14,0,0,0-7.18-2.78c-2.2,0-3.41.58-3.41,2.09s2.2,2.2,4.17,2.78,2.83.86,4,1.33a11.13,11.13,0,0,1,3.7,2.14,7.94,7.94,0,0,1,2.32,5.78A8.63,8.63,0,0,1,396.31,85.37Z" transform="translate(-0.26)"/><path class="cls-3" d="M116.6,26.86,53.41,30.6a1.8,1.8,0,0,0-1.7,1.79V71.72a1.81,1.81,0,0,0,1.61,1.79l49.62,5.25L117.32,90.7a.72.72,0,0,0,1.18-.55V28.65A1.8,1.8,0,0,0,116.6,26.86Z" transform="translate(-0.26)"/><path class="cls-4" d="M81.08,6.93A1.8,1.8,0,0,0,79.4,5.14L2.21.05A1.8,1.8,0,0,0,.26,1.84V56.26a.72.72,0,0,0,1.16.57L16.75,45,79.44,39.4a1.8,1.8,0,0,0,1.64-1.79Z" transform="translate(-0.26)"/><text class="cls-5" transform="translate(139.33 109.93)"><tspan class="cls-6">Y</tspan><tspan class="cls-7" x="7.84" y="0">our Questions. Biblical</tspan><tspan class="cls-8" x="178.85" y="0"> </tspan><tspan x="183.27" y="0">Answers.</tspan></text></g></g></svg>