<svg height="53.269" viewBox="0 0 192.603 53.269" width="192.603" xmlns="http://www.w3.org/2000/svg"><g transform="translate(-156.74 -158.634)"><g><path d="m195.384 167.72v-.005l1.719-2.129a4.26 4.26 0 0 0 -3.3-6.952l-.805.016-4.284 1.578-5.576 2.068-.106.04a23.519 23.519 0 0 0 -2.812-.184 23.45 23.45 0 0 0 -18.685 37.66 9.485 9.485 0 0 0 -.85 2.427 8.148 8.148 0 0 0 1.259 6.16 8.3 8.3 0 0 0 6.98 3.5 10.589 10.589 0 0 0 5.928-1.89 10.119 10.119 0 0 0 .882-.681c.213-.171.41-.371.61-.565a23.472 23.472 0 0 0 3.876.347 23.47 23.47 0 0 0 15.163-41.394z" fill="#fcb316"/><path d="m191.949 165.589a2.591 2.591 0 0 0 -.575 1.627v25.642a15.479 15.479 0 0 1 -.724 4.6 5.768 5.768 0 0 1 -.762 1.658c-.037.056-.074.111-.117.173-.031.043-.061.092-.1.141a4.9 4.9 0 0 1 -1 1.069 6.224 6.224 0 0 1 -.6.46c-2.593 1.794-5.886 1.53-7.341-.583s-.541-5.289 2.051-7.077a7.138 7.138 0 0 1 1.217-.657v-7.956l-8.121 3v10.914a15.5 15.5 0 0 1 -.725 4.6 5.913 5.913 0 0 1 -.756 1.658c-.037.056-.08.111-.117.172a1.189 1.189 0 0 0 -.1.142 5.067 5.067 0 0 1 -1.007 1.069 6.448 6.448 0 0 1 -.59.46c-2.6 1.794-5.885 1.53-7.347-.583s-.541-5.29 2.058-7.077a6.9 6.9 0 0 1 1.21-.658v-25.791a.861.861 0 0 1 .565-.8l5.645-2.1a.861.861 0 0 1 1.162.8v6.81a2.815 2.815 0 0 1 -.633 1.778l-1.518 1.861a.259.259 0 0 0 .289.406l9.987-3.681v-10.812a.864.864 0 0 1 .559-.811l5.547-2.058.1-.037 3.5-1.29a.252.252 0 0 1 .283.393z" fill="#fff"/></g><g fill="#f2dfce"><path d="m229.408 167.483h2.91a1.061 1.061 0 0 1 1.061 1.061v22.822a1.061 1.061 0 0 1 -1.061 1.061h-2.91a1.061 1.061 0 0 1 -1.061-1.061v-9.076h-9.3v9.076a1.061 1.061 0 0 1 -1.061 1.061h-2.91a1.061 1.061 0 0 1 -1.061-1.061v-22.822a1.061 1.061 0 0 1 1.061-1.061h2.91a1.061 1.061 0 0 1 1.061 1.061v9.22h9.3v-9.22a1.061 1.061 0 0 1 1.061-1.061z"/><path d="m235.816 183.991a9.089 9.089 0 1 1 9.087 8.87 8.845 8.845 0 0 1 -9.087-8.87zm13.357 0a4.275 4.275 0 1 0 -4.27 4.453 4.287 4.287 0 0 0 4.27-4.453z"/><path d="m277.976 170.741c-2.715 0-3.584 1.484-3.62 3.512v1.267h2.632a1.061 1.061 0 0 1 1.061 1.061v1.571a1.061 1.061 0 0 1 -1.061 1.061h-2.632v12.153a1.061 1.061 0 0 1 -1.061 1.061h-2.621a1.061 1.061 0 0 1 -1.061-1.061v-12.153h-5.961v12.153a1.061 1.061 0 0 1 -1.061 1.061h-2.62a1.061 1.061 0 0 1 -1.061-1.061v-12.153h-2.125a1.061 1.061 0 0 1 -1.061-1.061v-1.571a1.061 1.061 0 0 1 1.061-1.061h2.125v-1.231c0-5.068 2.606-7.965 7.421-7.965h.967a1.061 1.061 0 0 1 1.061 1.061v2.295a1.061 1.061 0 0 1 -1.061 1.061h-.025c-2.716 0-3.584 1.484-3.621 3.512v1.267h5.961v-1.231c0-5.068 2.607-7.965 7.422-7.965h.965a1.061 1.061 0 0 1 1.061 1.061v2.295a1.061 1.061 0 0 1 -1.061 1.061z"/><path d="m307.933 183.159v8.207a1.061 1.061 0 0 1 -1.061 1.061h-2.657a1.061 1.061 0 0 1 -1.061-1.061v-8.066c0-2.643-1.375-3.766-3.041-3.766-2.027-.036-3.33 1.412-3.33 4.562v7.266a1.061 1.061 0 0 1 -1.061 1.061h-2.622a1.061 1.061 0 0 1 -1.061-1.061v-7.99c0-2.679-1.376-3.838-2.969-3.838-1.7 0-3.439.942-3.439 3.983v7.845a1.061 1.061 0 0 1 -1.061 1.061h-2.62a1.061 1.061 0 0 1 -1.061-1.061v-14.781a1.061 1.061 0 0 1 1.061-1.061h2.621a1.061 1.061 0 0 1 1.061 1.061v2.233c.362-2.5 2.86-3.729 4.779-3.729a5.694 5.694 0 0 1 5.43 3.331 6.388 6.388 0 0 1 5.648-3.331c4.236 0 6.444 3.005 6.444 8.074z"/><path d="m325.3 175.52h2.62a1.061 1.061 0 0 1 1.061 1.061v14.785a1.061 1.061 0 0 1 -1.061 1.061h-2.62a1.061 1.061 0 0 1 -1.061-1.061v-1.366a6.693 6.693 0 0 1 -5.576 2.86c-4.67 0-8.145-3.62-8.145-8.87s3.4-8.906 8.254-8.906a6.488 6.488 0 0 1 5.467 2.679v-1.183a1.061 1.061 0 0 1 1.061-1.06zm-1.206 8.471a4.45 4.45 0 0 0 -4.417-4.489 4.473 4.473 0 0 0 .036 8.942 4.458 4.458 0 0 0 4.387-4.453z"/><path d="m349.343 183.159v8.207a1.061 1.061 0 0 1 -1.061 1.061h-2.621a1.061 1.061 0 0 1 -1.061-1.061v-7.954c0-2.643-1.593-3.837-3.222-3.837-1.7 0-3.8.9-3.8 3.982v7.809a1.061 1.061 0 0 1 -1.061 1.061h-2.621a1.061 1.061 0 0 1 -1.061-1.061v-14.785a1.061 1.061 0 0 1 1.061-1.061h2.621a1.061 1.061 0 0 1 1.061 1.061v1.8c.724-2.281 3.4-3.295 5.068-3.295 4.416-.001 6.733 3.004 6.697 8.073z"/></g><g fill="#fcb316"><path d="m221.344 203.764a.713.713 0 0 1 -.711.711.7.7 0 0 1 -.653-.45l-.414-1.138h-3.794l-.415 1.138a.7.7 0 0 1 -.652.45.713.713 0 0 1 -.711-.711.841.841 0 0 1 .059-.249l2.478-6.307a1.218 1.218 0 0 1 2.276 0l2.478 6.307a.84.84 0 0 1 .059.249zm-2.217-2.1-1.459-4-1.458 4z"/><path d="m228.37 200.456a3.974 3.974 0 0 1 4.09-4.089 3.576 3.576 0 0 1 2.775 1.173.632.632 0 0 1 .166.439.659.659 0 0 1 -.652.652.638.638 0 0 1 -.5-.226 2.362 2.362 0 0 0 -1.791-.806 2.864 2.864 0 0 0 0 5.715 2.367 2.367 0 0 0 1.8-.807.647.647 0 0 1 1.138.428.633.633 0 0 1 -.166.438 3.555 3.555 0 0 1 -2.775 1.174 3.975 3.975 0 0 1 -4.085-4.091z"/><path d="m250.085 203.764a.713.713 0 0 1 -.711.711.7.7 0 0 1 -.653-.45l-.414-1.138h-3.794l-.415 1.138a.7.7 0 0 1 -.652.45.713.713 0 0 1 -.711-.711.84.84 0 0 1 .059-.249l2.478-6.307a1.218 1.218 0 0 1 2.276 0l2.478 6.307a.84.84 0 0 1 .059.249zm-2.217-2.1-1.459-4-1.458 4z"/><path d="m257.881 203.669v-6.437a.663.663 0 0 1 .735-.735h2.206a3.958 3.958 0 1 1 0 7.907h-2.206a.663.663 0 0 1 -.735-.735zm2.941-.485a2.6 2.6 0 0 0 2.714-2.728 2.561 2.561 0 0 0 -2.714-2.738h-1.554v5.466z"/><path d="m272.933 203.669v-6.437a.663.663 0 0 1 .735-.735h4.132a.611.611 0 1 1 0 1.221h-3.48v2.051h3.4a.611.611 0 1 1 0 1.221h-3.4v2.194h3.48a.61.61 0 1 1 0 1.22h-4.137a.663.663 0 0 1 -.73-.735z"/><path d="m293.238 203.776v-5.359l-2.359 5.809a.4.4 0 0 1 -.735 0l-2.348-5.809v5.359a.694.694 0 1 1 -1.387 0v-6.2a1.152 1.152 0 0 1 1.15-1.151 1.138 1.138 0 0 1 1.067.723l1.885 4.671 1.9-4.671a1.15 1.15 0 0 1 2.218.428v6.2a.694.694 0 1 1 -1.387 0z"/><path d="m309 197.445-2.431 3.675v2.656a.694.694 0 1 1 -1.387 0v-2.656l-2.444-3.663a.654.654 0 0 1 -.106-.367.662.662 0 0 1 1.222-.356l2.028 3.154 2-3.154a.7.7 0 0 1 .557-.309.664.664 0 0 1 .665.665.615.615 0 0 1 -.104.355z"/></g></g></svg>