<?xml version="1.0" encoding="UTF-8"?>
<svg width="112px" height="20px" viewBox="0 0 112 20" version="1.1" xmlns="http://www.w3.org/2000/svg" xmlns:xlink="http://www.w3.org/1999/xlink">
    <!-- Generator: Sketch 64 (93537) - https://sketch.com -->
    <title>Kidslox logo</title>
    <desc>Created with Sketch.</desc>
    <g id="Kidslox-logo" stroke="none" stroke-width="1" fill="none" fill-rule="evenodd">
        <path d="M108.653585,4.26325641e-14 L108.821372,0.00433535788 C109.543647,0.0418622751 110.202673,0.322413558 110.765445,0.822573701 L110.893591,0.941882997 L111.018023,1.06906579 C111.539769,1.62879848 111.833853,2.29944118 111.873203,3.04260389 L111.877749,3.21537284 L111.873016,3.38725228 C111.838346,4.01392973 111.6136,4.60112574 111.212236,5.13357266 L111.098404,5.27741657 L107.142743,9.92630064 L111.246777,14.7574917 L111.356299,14.8963367 C111.742698,15.4113849 111.961587,15.9912126 111.995385,16.6137618 L112,16.7845905 L111.995453,16.9573599 C111.956099,17.7005266 111.661988,18.3711971 111.140238,18.9309337 L111.015806,19.058117 L110.888069,19.1771678 C110.327506,19.676368 109.676304,19.957965 108.96541,19.9956462 L108.800312,20 L108.637275,19.9956303 C107.88207,19.9549104 107.206639,19.6304904 106.649738,19.0598786 L106.53223,18.9338501 L106.466709,18.8582093 L103.096362,14.7701107 L99.6541256,18.873777 L99.5353047,19.0065257 C98.9721294,19.6077479 98.2883966,19.9521152 97.5231774,19.9953587 L97.3579689,20 L97.1919757,19.995545 C96.4773075,19.956991 95.8237057,19.668925 95.2626708,19.1596627 L95.1348587,19.038227 L95.011397,18.9096809 C94.4937156,18.344415 94.2018786,17.6730558 94.1628288,16.9320498 L94.1583169,16.7598287 L94.1630497,16.5879564 C94.1977222,15.9612978 94.4225192,15.3740126 94.8248047,14.8404699 L94.93891,14.6963015 L99.0139818,9.9244142 L95.0534546,5.26981586 L94.9381495,5.12540521 C94.5310471,4.59117775 94.2971968,4.00552386 94.2610488,3.38535333 L94.2561104,3.21537284 L94.2606569,3.04260389 C94.3000069,2.29944118 94.5940909,1.62879848 95.1158362,1.06906579 L95.240268,0.941882997 L95.3684146,0.822573701 C95.9311861,0.322413558 96.5902119,0.0418622751 97.3124728,0.00433535788 L97.4802559,4.26325641e-14 L97.6479131,0.00462496338 C98.4243731,0.047733905 99.1168051,0.39140039 99.6889498,1.00188305 L99.8096979,1.13677239 L103.101119,5.08162974 L106.36329,1.14853059 C106.956292,0.403771415 107.744917,4.26325641e-14 108.653585,4.26325641e-14 Z M53.1725226,4.26325641e-14 L53.5208955,0.00355378855 C54.543735,0.0246229391 55.4832294,0.139461596 56.3394171,0.350360196 L56.6565825,0.433954454 L56.9706252,0.528099641 C57.8009985,0.792678305 58.574648,1.1654072 59.2883783,1.64512353 L59.5532122,1.83002993 L59.7079751,1.94750313 C60.0079859,2.18661777 60.2505522,2.45101262 60.4293014,2.74556318 L60.5133284,2.89537401 L60.5870709,3.05105499 C60.724131,3.36777709 60.7989742,3.71641142 60.8175609,4.09248426 L60.8221937,4.28278651 L60.817492,4.46654586 C60.7861591,5.07415942 60.5983378,5.63177359 60.2575562,6.11469285 L60.1507364,6.25730309 L60.0513934,6.37616821 C59.6118008,6.8755244 59.0549357,7.16919705 58.4240861,7.20860255 L58.2772117,7.21316039 L58.0861588,7.20775206 C57.8968432,7.19691386 57.7128157,7.16972143 57.5347599,7.12559324 L57.3587201,7.07579826 L57.2423309,7.03545178 C57.0841359,6.97639352 56.9133919,6.89622559 56.7239619,6.79425337 L56.5782898,6.71367504 L56.1116453,6.44869433 L55.7169619,6.23693686 L55.5625121,6.15974129 C55.3493275,6.0598044 55.1071174,5.97191333 54.8356514,5.89707199 L54.6265629,5.8434035 L54.4077251,5.79631051 C54.1107914,5.73914073 53.7932366,5.70449969 53.4548089,5.69293007 L53.1970705,5.68858722 L53.0256872,5.69136102 C52.5303807,5.70773981 52.1458747,5.79613257 51.8649147,5.94266137 L51.7643943,6.00030769 L51.7005885,6.04251589 C51.5881992,6.12119128 51.5419353,6.18186031 51.5269062,6.25609872 L51.5213397,6.30477544 L51.5226037,6.32074837 L51.5266762,6.33613064 L51.5383464,6.35615117 L51.5556199,6.3717349 L51.6215934,6.41199116 L51.6954028,6.45223952 C51.7742111,6.49320464 51.86796,6.53624141 51.9761454,6.58064168 L52.0891243,6.62547024 L52.1921163,6.66356955 C52.5074845,6.77615144 52.9395258,6.89591516 53.4881689,7.021055 L53.9215128,7.11588969 L54.11634,7.15625584 L54.444097,7.23015076 C55.8450527,7.55503578 56.9949467,7.94089631 57.8998788,8.39622106 L58.1043637,8.50253296 L58.3136516,8.61862097 C59.1992573,9.12570494 59.8784639,9.72367279 60.3367303,10.4226202 L60.4466856,10.5994667 L60.5535661,10.7907469 C60.9295515,11.5006133 61.1306697,12.3036592 61.1615784,13.1873132 L61.1657915,13.4302988 L61.1613836,13.6756777 C61.1202496,14.8136009 60.7913065,15.8504604 60.1781535,16.7624409 L60.0424147,16.9559452 L59.8927753,17.1523481 C59.2282161,17.9898241 58.354451,18.6504283 57.2861407,19.1328612 L57.0361608,19.2410284 L56.7704447,19.3460555 C55.6967749,19.7503824 54.4935296,19.9654668 53.1639784,19.9961642 L52.8289611,20 L52.4126405,19.995376 C51.309826,19.9707093 50.2660278,19.8473106 49.2818477,19.6241391 L48.915576,19.5357709 L48.6205577,19.4567175 C47.6598051,19.1874042 46.8258986,18.8344018 46.1203416,18.392949 L45.8899117,18.2425156 L45.7785328,18.16508 L45.6884998,18.0948788 L45.5391984,17.9696158 C45.2985893,17.7576432 45.0993375,17.5294608 44.9448118,17.2819983 L44.8574905,17.1311827 L44.7813599,16.9753033 C44.640121,16.6573769 44.5645282,16.3026203 44.5458127,15.9141859 L44.5411541,15.7171769 L44.545303,15.5461166 C44.5754623,14.9287187 44.7698956,14.362744 45.1235574,13.8748059 L45.2344277,13.7307922 L45.335235,13.613374 C45.780689,13.1201116 46.3372051,12.8302171 46.964663,12.7913202 L47.1107021,12.7868213 L47.3068699,12.792989 C47.5019984,12.8053253 47.693902,12.8361691 47.8816194,12.8855403 L48.0679059,12.9410881 L48.2110162,12.993098 C48.4050507,13.0690949 48.6123485,13.1717013 48.8374654,13.3010151 L49.0097153,13.4030095 L49.2583683,13.5366591 C49.671614,13.749754 50.0789937,13.9146441 50.4807118,14.0323238 L50.7210649,14.0972744 L50.9399954,14.1471448 C51.3862142,14.2403777 51.8825702,14.2944829 52.4288957,14.3080388 L52.7062218,14.3114311 L52.8848173,14.3095179 C53.5242161,14.2955563 53.9934433,14.2059354 54.2856931,14.0654982 L54.3610046,14.0259559 L54.4172257,13.9915758 C54.4841499,13.9473944 54.520024,13.9082937 54.5380334,13.8556222 L54.5483969,13.8132827 L54.4819805,13.7646247 L54.4064281,13.7177886 L54.3440695,13.6838509 C54.0315674,13.5234187 53.4187625,13.3347306 52.5323162,13.1401539 L52.3381847,13.0983769 L52.0636177,13.0418936 L51.7268037,12.9683022 C50.2875498,12.6450158 49.1116759,12.2644371 48.1923051,11.8180295 L47.9846928,11.7138399 L47.7702934,11.5987879 C46.8580592,11.0924249 46.1650604,10.4843211 45.7088075,9.76342446 L45.6077289,9.59505643 L45.5036254,9.4018235 C45.1375436,8.68378379 44.9431827,7.86134992 44.9133314,6.94489632 L44.9092635,6.69263116 L44.9137891,6.45250179 C44.9560137,5.33773869 45.2935196,4.30527909 45.9181508,3.37758862 L46.0563922,3.1804096 L46.2078919,2.98061073 C46.9315681,2.06228353 47.8883525,1.34095968 49.0625375,0.819081249 C50.2946521,0.271427577 51.6675596,4.26325641e-14 53.1725226,4.26325641e-14 Z M21.5598669,0.176006681 L21.7491001,0.180097992 C22.560977,0.215569749 23.2659823,0.481875722 23.8196976,0.985978567 L23.9447723,1.10653441 L24.062331,1.23325933 C24.5539994,1.79375929 24.8149964,2.50079966 24.8497732,3.31063733 L24.8537849,3.49932784 L24.8537849,16.6521002 L24.8497928,16.8436652 C24.8151797,17.6655742 24.5552921,18.379685 24.0626052,18.9423378 L23.9447723,19.0694723 L23.8196976,19.1900249 C23.2659823,19.6941159 22.560977,19.9604348 21.7491001,19.9959085 L21.5598669,20 L21.3728389,19.9958598 C20.5662409,19.9597846 19.8655416,19.6878285 19.3176518,19.1750399 L19.2026028,19.0614686 L19.0871655,18.9344058 C18.6045615,18.3722592 18.3508427,17.6611491 18.3170594,16.8428277 L18.3131634,16.6521002 L18.3131634,3.49932784 L18.3170788,3.31149075 C18.353635,2.44328531 18.6463486,1.69347609 19.2026028,1.11453804 C19.8062234,0.48635353 20.6156335,0.176006681 21.5598669,0.176006681 Z M13.8603527,0.176006681 L14.0246627,0.180228915 C14.7275763,0.216562072 15.3664873,0.486829535 15.9067494,0.96948129 L16.0397398,1.09455643 L16.1586366,1.21793911 C16.6571101,1.7610385 16.9372624,2.41288077 16.9747409,3.13480172 L16.9790709,3.30262527 L16.9744788,3.46868521 C16.9347591,4.18377028 16.6383796,4.83952146 16.1248247,5.40748008 L16.0024748,5.53697606 L11.7334079,9.76203384 L16.3630226,14.5611188 L16.4189382,14.6171259 L16.5328072,14.7392423 C17.0074702,15.272898 17.2766615,15.9041241 17.3152669,16.5997759 L17.3200998,16.7750118 L17.3158043,16.9422678 C17.2786251,17.6619404 17.0007197,18.3143315 16.5064993,18.8628037 L16.3886197,18.9875129 L16.2647864,19.106648 C15.719825,19.6059706 15.0672783,19.8846737 14.3449463,19.9219409 L14.1770328,19.9262457 L14.0066852,19.9216471 C13.2164869,19.8787957 12.4936265,19.5374357 11.8691159,18.9382042 L11.7368088,18.8058652 L6.67584275,13.572258 L6.67584275,16.6521002 L6.67170096,16.8449633 C6.63561112,17.6766624 6.36353296,18.3983512 5.85020501,18.9628983 L5.73651165,19.0814503 L5.60902352,19.2006697 C5.04488973,19.6990836 4.32991438,19.9610902 3.50568959,19.9959767 L3.31356346,20 L3.12376137,19.9959293 C2.30942866,19.9606352 1.60206814,19.6956468 1.04510894,19.19362 L0.919269511,19.0735565 L0.800183921,18.9463978 C0.302223458,18.3835369 0.0390922087,17.6679019 0.00404264482,16.8441065 L0,16.6521002 L0,3.49932784 L0.00406245516,3.310196 C0.0392775769,2.49847185 0.30353094,1.78990633 0.800461265,1.22918444 L0.919269511,1.10243186 L1.04510894,0.98237501 C1.60206814,0.480373885 2.30942866,0.215373586 3.12376137,0.180077631 L3.31356346,0.176006681 L3.50568959,0.180030397 C4.32991438,0.214920781 5.04488973,0.476953119 5.60902352,0.975343392 L5.73651165,1.09455643 L5.85775643,1.22134849 C6.36495107,1.78244083 6.63560356,2.49392267 6.67168048,3.30933259 L6.67584275,3.49932784 L6.67584275,6.21893326 L11.6342215,1.17886015 C12.2148391,0.570298277 12.9151246,0.224121768 13.6925876,0.180669619 L13.8603527,0.176006681 Z M85.3839454,0.00133920231 C90.7077618,0.0887306188 95.0072418,4.44226354 95.092699,9.83253492 L95.0939955,9.99619049 L95.0926727,10.1614965 C95.0063556,15.5515746 90.7063412,19.9046018 85.3823158,19.9911233 L85.2206715,19.9924359 L85.0573982,19.9910967 C79.6798231,19.9028218 75.3473476,15.4617501 75.3473476,9.99619049 C75.3473476,4.53064897 79.6798231,0.0896133604 85.0573982,0.00133920231 L85.3839454,0.00133920231 Z M65.3410011,0 L65.533211,0.00407048841 C66.3620272,0.039545676 67.0804451,0.307119619 67.6451769,0.815351767 L67.7638227,0.927945319 L67.8843865,1.05541135 C68.3886917,1.61937853 68.6572763,2.33316752 68.6930726,3.15134223 L68.6972023,3.3419841 L68.6972023,13.9085205 L73.1873446,13.9085205 L73.3508572,13.9110141 C75.1823499,13.9674212 76.3289351,14.9785929 76.3947969,16.7184663 L76.3977962,16.8786378 L76.3943671,17.0514768 C76.3623211,17.849332 76.105087,18.5235747 75.5984151,19.0136667 L75.4860158,19.1158457 L75.3684852,19.2103608 C74.8507273,19.6019485 74.1851591,19.7934479 73.3890748,19.8205923 L73.1873446,19.823975 L65.1952335,19.823975 L65.0096555,19.8202045 C64.2140893,19.7874918 63.5314892,19.5414616 63.0047779,19.0643019 L62.8860159,18.9500771 L62.7741644,18.8288617 C62.3071061,18.2911049 62.0686966,17.5920249 62.037021,16.7723962 L62.0333711,16.5811297 L62.0333711,3.3419841 L62.0374019,3.15220223 C62.075032,2.27504563 62.3762742,1.51807747 62.9467615,0.935857378 C63.5613263,0.308625243 64.3821692,0 65.3410011,0 Z M34.2742503,0.176006681 L34.6357537,0.179973108 C36.4297983,0.219648481 38.0216061,0.557139109 39.4040812,1.19994357 L39.677783,1.33257754 L39.9353713,1.46746988 C41.2918132,2.20431549 42.3701194,3.21964725 43.1542053,4.50242854 L43.2977696,4.74608152 L43.43256,4.99274809 C44.1306776,6.32102186 44.4966987,7.8525314 44.5373444,9.57460647 L44.5411541,9.89972564 L44.5373961,10.2270367 C44.4973011,11.9606088 44.1362259,13.5005435 43.4471063,14.8350323 L43.3140504,15.0828385 L43.1793302,15.3157747 C42.4007499,16.6148768 41.3208297,17.6375672 39.9566632,18.3716937 L39.6975551,18.5059579 L39.4239172,18.6369577 C38.0413932,19.2718245 36.4440008,19.6048835 34.6381896,19.6440359 L34.2742503,19.64795 L29.3479267,19.64795 L29.1625085,19.6442481 C28.3676491,19.6121277 27.6858953,19.3704957 27.1582739,18.9004075 L27.0392699,18.7878616 L26.9266828,18.6679929 C26.4563624,18.136374 26.2138338,17.4474249 26.1815865,16.6446504 L26.1778696,16.4573939 L26.1778696,3.36656276 L26.1815865,3.17930929 C26.2138338,2.37654476 26.4563624,1.68757084 26.9266828,1.15597568 L27.0392699,1.03611342 L27.1582739,0.923560866 C27.6858953,0.453447033 28.3676491,0.211826965 29.1625085,0.179708353 L29.3479267,0.176006681 L34.2742503,0.176006681 Z M33.5970766,6.09395204 L32.5266849,6.09395204 L32.5266849,14.082073 L33.5970766,14.082073 L33.8238618,14.0790655 C35.0125951,14.0470253 35.869613,13.7596093 36.437465,13.2470717 L36.5405589,13.1483401 L36.6325617,13.0491839 C37.1409316,12.4684496 37.4279653,11.5664817 37.4582889,10.3023759 L37.4609681,10.0755309 L37.4582957,9.84896102 C37.4280507,8.58661324 37.1417937,7.68976556 36.6359353,7.11684474 L36.544394,7.01909517 L36.4412799,6.9213278 C35.8377281,6.38204594 34.9061492,6.09395204 33.5970766,6.09395204 Z M85.3118803,4.81298603 L85.2037418,4.81477869 C84.4874769,4.8386809 83.864384,5.10160974 83.3345039,5.6037441 L83.255721,5.68085831 L83.1794154,5.76042011 C82.6825341,6.29555474 82.422106,6.92513522 82.39843,7.64876248 L82.3966543,7.75801188 L82.3966543,9.02013179 L82.1885492,9.02013179 L82.1316652,9.02241013 C82.0011669,9.03304039 81.8863027,9.08085563 81.7874303,9.16556286 L81.7460365,9.20412379 L81.7077584,9.24605797 C81.6237173,9.34616647 81.5765852,9.46210498 81.5661154,9.59377873 L81.5638722,9.65117344 L81.5638722,13.437698 L81.5661154,13.4951536 C81.5780809,13.6457975 81.6379318,13.775849 81.7460365,13.8847294 C81.8538035,13.9939516 81.9825242,14.0543918 82.1316652,14.0664746 L82.1885492,14.0687397 L88.4354104,14.0687397 L88.4922933,14.0664746 C88.6227741,14.0559022 88.7375307,14.0083061 88.836495,13.9234019 L88.8779412,13.8847294 L88.9161826,13.842908 C89.0001765,13.7430144 89.0475106,13.626967 89.0580317,13.4951536 L89.0602865,13.437698 L89.0602865,9.65117344 L89.0580317,9.59377873 C89.0475106,9.46210498 89.0001765,9.34616647 88.9161826,9.24605797 L88.8779412,9.20412379 L88.836495,9.16556286 C88.7375307,9.08085563 88.6227741,9.03304039 88.4922933,9.02241013 L88.4354104,9.02013179 L88.2271606,9.02013179 L88.2271606,7.75801188 L88.2253859,7.64876248 C88.2017227,6.92513522 87.9414298,6.29555474 87.4445613,5.76042011 L87.3682568,5.68085831 L87.289475,5.6037441 C86.7595941,5.10160974 86.1363353,4.8386809 85.4200248,4.81477869 L85.3118803,4.81298603 Z M85.3118803,6.07508764 L85.4029492,6.07728093 C85.7957025,6.09638645 86.1374648,6.24030544 86.4283079,6.50879576 L86.4898521,6.56823601 L86.5527484,6.63486499 C86.8172494,6.92902399 86.9583037,7.27482802 86.9759354,7.67209549 L86.9778245,7.75801188 L86.9778245,9.02013179 L83.6461713,9.02013179 L83.6461713,7.75801188 L83.6483401,7.66601889 C83.6685825,7.24093782 83.8305208,6.87493575 84.1341256,6.56823601 C84.437933,6.26150209 84.8000616,6.09775113 85.2208202,6.07728093 L85.3118803,6.07508764 Z" id="Shape-Copy" fill="#24AE80"></path>
    </g>
</svg>