<svg xmlns="http://www.w3.org/2000/svg" xmlns:xlink="http://www.w3.org/1999/xlink" version="1.1" id="layer" x="0px" y="0px" style="enable-background:new 0 0 652 652;" xml:space="preserve" viewBox="20.5 236 600 169.8">
<style type="text/css">
	.st0{fill:#EE3524;}
</style>
<path class="st0" d="M613.6,297.2c2.7,2.7,6.9,0.3,6.9-2.6v-48.8c0-2.8-2.3-5.1-5.1-5.1h-48.8c-2.8,0-5.4,4.1-2.7,6.8  C564,247.5,613.6,297.2,613.6,297.2z"/>
<path d="M20.5,245.1c0-2.1,1.7-3.8,4-3.8h21.6c2.1,0,4,1.7,4,3.8v47.4c0,2.1,0.9,2.4,2,0.6l28.8-48.4c1.1-1.8,3.7-3.4,6-3.4h21.8  c2.1,0,3,1.4,1.7,3.3l-29.2,42c-1.3,1.7-1.6,4.8-0.7,6.8l33.3,76.2c0.9,2-0.3,3.5-2.4,3.5H88.8c-2.1,0-4.5-1.6-5.4-3.5l-20.8-53.6  c-0.7-2-2.4-2.1-3.7-0.4l-6.7,9.5c-1.3,1.7-2.3,5-2.3,7.1v37c0,2.1-1.8,3.8-4,3.8H24.5c-2.1,0-4-1.7-4-3.8V245.1z M119.1,245.1  c0-2.1,1.8-3.8,4-3.8h19.7c2.1,0,4,1.7,4,3.8v123.9c0,2.1-1.8,3.8-4,3.8h-19.7c-2.1,0-4-1.7-4-3.8V245.1z M186.2,263.6  c0,2.1-1.8,3.8-4,3.8h-20c-2.1,0-4-1.7-4-3.8v-19.1c0-2.1,1.8-3.8,4-3.8h20c2.1,0,4,1.7,4,3.8V263.6z M158.4,279.4  c0-2.1,1.8-3.8,4-3.8h19.7c2.1,0,4,1.7,4,3.8v89.8c0,2.1-1.7,3.8-4,3.8h-19.7c-2.1,0-4-1.7-4-3.8V279.4z M197.8,279.4  c0-2.1,1.8-3.8,4-3.8h17.7c2.1,0,4,1.7,4,3.8v6.8c0,2.1,1.8,2.4,2.4,0.9c2.1-5,9.5-12.8,20-12.8c9.1,0,16.6,4,22.5,11.9  s9.1,20.1,9.1,36.4c0,17.2-3,30.1-8.8,38.7c-5.8,8.7-14.2,13-24.8,13c-7.7,0-13.9-2.8-18.9-8.7v36.4c0,2.1-1.8,3.8-4,3.8h-19.3  c-2.1,0-4-1.7-4-3.8L197.8,279.4L197.8,279.4z M225,329.1c0,2.1,0.1,5.7,0.1,7.8c0,0,0.6,11.5,2.1,14.3s4.7,4.1,9.4,4.1  c4.1,0,7.2-1.8,9.4-5.5c2-3.7,3-12.8,3-27.1c0-11.9-0.9-20-2.7-24.2c-1.7-4.3-4.7-6.4-8.9-6.4c-3.4,0-6.4,1.3-8.8,4  c-2.4,2.7-3.7,8.8-3.7,18.6L225,329.1L225,329.1z M318.1,275.5v93.6c0,2.1-1.8,3.8-4,3.8h-18.6c-2.1,0-4-1.7-4-3.8  c0,0,0.1-95.3,0.1-97.4c0,0,0.6-12.9,2.1-17.7c1.4-4.8,4.5-8.9,9.4-12.6c4.8-3.5,11.3-5.4,19.6-5.4c3.5,0,7.1,0.3,10.5,0.9  c2.1,0.3,3.5,1.7,3.5,3.7v13.9c0,2.1-1.7,3.7-4,3.5h-2.3c-5.2,0-8.7,1.1-10.2,3.3C318.8,263.4,318.1,268.2,318.1,275.5L318.1,275.5z   M415.5,324.1c0,33.9-13.3,50.8-40.1,50.8c-26.8,0-40.3-16.9-40.3-50.8c0-33.8,13.5-50.6,40.3-50.6  C402.2,273.5,415.5,290.4,415.5,324.1z M387,324.3c0-12.5-0.9-20.8-2.6-25.2c-1.7-4.4-4.8-6.5-9.1-6.5c-4.1,0-7.2,2.1-8.9,6.2  c-1.8,4.1-2.7,12.6-2.7,25.5c0,11.9,0.7,20.1,2.4,24.8c1.6,4.7,4.7,6.9,9.4,6.9c4.5,0,7.5-2.3,9.2-6.9  C386.1,344.5,387,336.2,387,324.3L387,324.3z M424.7,245.1c0-2.1,1.7-3.8,4-3.8h19.7c2.1,0,4,1.7,4,3.8v123.9c0,2.1-1.7,3.8-4,3.8  h-19.7c-2.1,0-4-1.7-4-3.8V245.1z M491.9,263.6c0,2.1-1.8,3.8-4,3.8h-20.1c-2.1,0-4-1.7-4-3.8v-19.1c0-2.1,1.7-3.8,4-3.8h20  c2.1,0,4,1.7,4,3.8C491.8,244.4,491.9,263.6,491.9,263.6z M464.1,279.4c0-2.1,1.7-3.8,4-3.8h19.7c2.1,0,4,1.7,4,3.8v89.8  c0,2.1-1.8,3.8-4,3.8h-19.7c-2.1,0-4-1.7-4-3.8C464.1,369.2,464.1,279.4,464.1,279.4z M581.4,324.1c0,33.9-13.3,50.8-40.1,50.8  S501,358,501,324.1c0-33.8,13.5-50.6,40.3-50.6C567.9,273.5,581.4,290.4,581.4,324.1z M552.9,324.3c0-12.5-0.9-20.8-2.6-25.2  s-4.7-6.5-9.1-6.5c-4.1,0-7.2,2.1-9.1,6.2c-1.8,4.1-2.7,12.6-2.7,25.5c0,11.9,0.7,20.1,2.4,24.8c1.6,4.7,4.7,6.9,9.4,6.9  c4.5,0,7.5-2.3,9.2-6.9C552.1,344.5,552.9,336.2,552.9,324.3z"/>
<path d="M335.4,293.1c0,2.1-1.8,3.8-4,3.8h-47.2c-2.1,0-4-1.7-4-3.8v-13.6c0-2.1,1.8-3.8,4-3.8h47.2c2.1,0,4,1.7,4,3.8V293.1z"/>
</svg>