<svg xmlns="http://www.w3.org/2000/svg" width="228" height="52" fill="none" viewBox="0 0 228 52"><path fill="#15382F" d="M55.569 26.517c0-.332.094-.378.472-.237 1.323.756 3.118-.377 2.977-2.032-.237-3.165 1.795-3.874 3.544-3.686 6.19.85 5.292 13.75-2.174 12.805-3.307-.423-5.15-3.4-4.82-6.85m.992-8.364c-.472-.095-.992 0-1.512.331-6.852 4.536-4.536 18.287 4.915 19.232 13.608 1.607 15.168-20.036 2.882-21.5-2.079-.237-4.584.236-6.285 1.937m58.217-1.938c-2.031-.189-4.488.285-6.237 1.985-.472-.095-.993 0-1.465.331-6.757 4.584-4.489 18.24 4.867 19.185 13.468 1.56 15.028-20.036 2.835-21.5m3.781 11.39c-.424 3.59-2.882 6.19-6.19 5.765-3.307-.425-5.104-3.355-4.82-6.852.048-.331.142-.378.472-.19 1.371.71 3.119-.377 2.978-2.031-.19-3.166 1.795-3.922 3.544-3.686 2.315.282 4.489 3.07 4.016 6.993m-19.327-13.28.237-2.645c0-3.072-4.253-3.119-4.488-.284l-.237 2.93c0 .52-.237.756-.756.756h-1.372c-2.977 0-2.835 4.442.048 4.442h1.086c.52 0 .709.237.661.756l-.284 6.758c-.377 7.607 2.978 9.97 6.71 10.537 2.835.473 3.497-3.921.614-4.347-1.417-.237-3.165-.567-2.93-5.907l.425-7.04c.047-.52.237-.757.756-.757h1.56c2.93 0 2.883-4.442-.047-4.442h-1.276c-.517 0-.754-.237-.707-.756"/><path fill="#15382F" d="M129.237 22.69c0-3.118 7.277-2.457 9.262.425 1.702 2.363 5.34-.048 3.639-2.646-2.74-3.97-8.506-5.057-12.475-3.781-3.118.898-4.867 3.118-4.867 6 0 8.46 13.326 4.726 13.326 8.647 0 3.072-7.277 2.505-9.262-.424-2.032-2.504-5.198.094-3.687 2.646 4.254 5.906 17.343 6 17.343-2.222 0-8.598-13.279-4.913-13.279-8.645"/><path fill="#15382F" d="m150.643 14.326.189-2.646c.237-3.025-4.3-3.119-4.395-.284l-.236 2.93c-.048.52-.237.756-.756.756h-1.371c-2.93 0-2.93 4.442.048 4.442h1.086c.472 0 .709.237.661.756l-.331 6.758c-.377 7.607 2.977 9.97 6.71 10.537 2.93.473 3.497-3.921.614-4.347-1.37-.237-3.118-.567-2.883-5.907l.425-7.04c0-.52.237-.757.756-.757h1.56c2.883 0 2.835-4.442-.047-4.442h-1.323c-.518 0-.707-.237-.707-.756"/><path fill="#15382F" d="M170.773 34.314v1.228c0 2.741 4.254 2.741 4.254 0V18.295c0-2.788-3.969-2.788-4.254-.048-1.038 10.207-4.677 15.169-7.465 15.169-4.301 0-2.222-12.333-2.364-15.216-.094-2.457-3.921-2.977-4.253.142-.236 2.316-3.307 19.469 6.615 19.469 2.694 0 4.678-1.37 6.522-3.781.709-.897.945-.803.945.284m21.312-6.899c.803-8.317-8.601-9.12-10.112-1.937-1.654 8.6 9.308 11.34 10.112 1.937m.803 8.694c0-.425-.331-.52-.661-.284-6.804 5.151-17.248.19-15.027-11.294 1.607-8.27 9.451-10.726 15.027-6.048.425.331.756.19.756-.284l.047-7.798c0-3.307 4.915-3.212 4.915 0l-.142 21.549c.047 1.37.047 2.835-.047 4.395-.142 2.693-4.915 2.551-4.868-.19zm26.462-19.846c-2.079-.284-4.583.236-6.285 1.937-.472-.095-.993 0-1.512.331-6.899 4.584-4.443 18.24 4.914 19.185 13.657 1.607 15.123-20.083 2.883-21.453m-2.457 17.105c-3.307-.424-5.151-3.354-4.82-6.804 0-.377.095-.425.472-.237 1.323.757 3.119-.377 2.978-2.031-.237-3.166 1.795-3.875 3.544-3.687 6.238.851 5.245 13.705-2.174 12.76m-11.766-14.601c0-3.025-4.725-3.025-4.725 0V35.59c0 2.93 4.725 2.93 4.725 0zm-5.477-7.495c0 1.643 1.428 3.028 3.071 3.028 1.687 0 3.071-1.383 3.071-3.028a3.08 3.08 0 0 0-3.071-3.07c-1.643 0-3.071 1.383-3.071 3.07M90.253 34.125c1.795-2.316-1.748-4.962-3.544-2.694-3.26 4.206-9.308 1.087-9.215-4.158.047-4.583 2.646-6.71 5.197-6.804 1.843-.048 3.734 1.086 3.875 3.26.284 2.977 4.347 3.024 4.488.047.237-10.301-17.814-10.963-18.05 3.402-.188 9.405 11.342 14.46 17.25 6.947"/><path fill="#FF8C1A" d="M35.562 25.302c-3.883 1.028-4.967 3.425-8.05.285a10.4 10.4 0 0 1-1.497-2.969 8.4 8.4 0 0 1-3.342 1.002 9 9 0 0 1-.693.03q-.165-.002-.329-.01c.513 1.8 1.297 3.407 2.493 5.03 5.596 5.767 9.648 1.884 12.503 1.085 2.969-.8 3.311 1.599 3.14 2.513-.228 1.256.57 2.455 1.77 2.74 1.199.228 2.341-.57 2.626-1.826.856-4.797-2.456-9.593-8.621-7.88"/><path fill="#7FD926" d="M18.25 22.778a10.4 10.4 0 0 1-1.446 2.809c-3.083 3.14-4.168.742-8.05-.285C2.59 23.589-.721 28.385.135 33.18c.284 1.257 1.427 2.055 2.626 1.827 1.2-.285 1.998-1.484 1.77-2.74-.172-.915.17-3.312 3.14-2.513 2.854.8 6.908 4.681 12.503-1.085 1.2-1.63 1.985-3.243 2.499-5.052q-.343.029-.693.03a8.34 8.34 0 0 1-3.729-.869"/><path fill="#FFD500" d="M21.958 29.25c-4.282 6.11-14.216 5.138-14.216 10.391 0 1.257-.97 2.285-2.226 2.285-1.199 0-2.226-1.029-2.226-2.285 0-9.477 11.819-8.392 15.073-13.131.742-1.029 2.112-1.257 3.14-.514.968.743 1.197 2.227.455 3.254"/><path fill="#825EED" d="M26.115 23.28c.628 9.249-8.735 17.47-5.595 23.008.627 1.142.285 2.57-.8 3.197-1.028.629-2.398.285-3.026-.799-4.796-8.507 5.481-17.298 4.967-25.063-.114-1.256.8-2.398 2.055-2.455 1.2-.114 2.285.855 2.4 2.112"/><path fill="#7FD926" d="M22.815 25.996c1.028-.743 2.398-.513 3.14.514 3.254 4.738 15.073 3.653 15.073 13.131 0 1.257-1.028 2.285-2.226 2.285-1.257 0-2.227-1.029-2.227-2.285 0-5.252-9.934-4.282-14.215-10.39-.744-1.028-.515-2.512.455-3.255"/><path fill="#66BFFF" d="M20.599 21.168c1.256.057 2.169 1.199 2.055 2.455-.514 7.765 9.762 16.557 4.966 25.063-.628 1.085-1.998 1.428-3.026.8-1.085-.627-1.427-2.055-.8-3.197 3.14-5.538-6.222-13.76-5.595-23.008.115-1.258 1.2-2.227 2.4-2.113"/><path fill="#FF99C4" d="M22.628 21.282c1.028-.685 2.397-.4 3.083.684.628 1.085.342 2.513-.686 3.197-6.223 4.111-5.595 14.902-13.13 18.726a2.16 2.16 0 0 1-2.97-1.028 2.29 2.29 0 0 1 1.029-3.083c5.48-2.853 5.024-13.415 12.674-18.496"/><path fill="#825EED" d="M34.363 39.78a2.29 2.29 0 0 1 1.028 3.083 2.16 2.16 0 0 1-2.969 1.028c-7.536-3.825-6.908-14.615-13.132-18.726-1.028-.685-1.313-2.113-.684-3.197.684-1.085 2.054-1.37 3.083-.685 7.65 5.08 7.192 15.642 12.674 18.497"/><path fill="#21024C" d="M33.68 14.928c0 6.45-5.648 12.045-11.51 12.045-5.718 0-11.532-5.597-11.532-12.045 0-6.45 5.083-11.678 11.531-11.678s11.51 5.229 11.51 11.678"/><path fill="#825EED" d="M14.904 13.012a1.02 1.02 0 0 1-1.019-1.018 5.343 5.343 0 0 1 5.337-5.337 1.019 1.019 0 0 1 0 2.037 3.305 3.305 0 0 0-3.301 3.301 1.016 1.016 0 0 1-1.017 1.017"/><path fill="#fff" d="M13.365 17.069a6.01 6.01 0 0 0-6.004 6.003 6.01 6.01 0 0 0 6.004 6.003 6.01 6.01 0 0 0 6.003-6.003 6.01 6.01 0 0 0-6.003-6.003"/><path fill="#21024C" d="M13.365 19.184a3.89 3.89 0 0 0-3.888 3.888 3.89 3.89 0 0 0 3.887 3.888 3.89 3.89 0 0 0 3.888-3.888 3.89 3.89 0 0 0-3.887-3.888"/><path fill="#fff" d="M16.915 21.528a1.896 1.896 0 1 1-3.792 0 1.896 1.896 0 0 1 3.792 0m14.035-4.459a6.01 6.01 0 0 0-6.002 6.003 6.01 6.01 0 0 0 6.003 6.003 6.01 6.01 0 0 0 6.003-6.003 6.01 6.01 0 0 0-6.003-6.003"/><path fill="#21024C" d="M30.95 19.184a3.89 3.89 0 0 0-3.887 3.888 3.89 3.89 0 0 0 3.888 3.888 3.89 3.89 0 0 0 3.888-3.888 3.89 3.89 0 0 0-3.888-3.888"/><path fill="#fff" d="M34.501 21.528a1.895 1.895 0 1 1-3.79.001 1.895 1.895 0 0 1 3.79 0"/></svg>