<?xml version="1.0" encoding="UTF-8"?>
<svg width="150px" height="96px" viewBox="0 0 150 96" version="1.1" xmlns="http://www.w3.org/2000/svg" xmlns:xlink="http://www.w3.org/1999/xlink">
    <!-- Generator: Sketch 56 (81588) - https://sketch.com -->
    <title>Group 11</title>
    <desc>Created with Sketch.</desc>
    <g stroke="none" stroke-width="1" fill="none" fill-rule="evenodd">
        <g transform="translate(-522.000000, -143.000000)" fill="#262D3F">
            <g transform="translate(522.000000, 143.000000)">
                <path d="M148.118267,62.6279504 C147.556057,62.6706415 147.396954,63.4725209 145.071059,63.6489771 L139.961223,64.0360422 C139.955516,64.0310616 139.950521,64.0253695 139.9441,64.0211004 L46.1434497,71.120615 C45.1267623,71.1974588 44.1521693,71.668483 43.4337102,72.4305175 L32.7039124,83.8154978 L32.6989181,73.2338199 C32.6982047,72.5778014 32.1581118,72.0875664 31.4931625,72.1380841 L18.6572165,73.1093045 L3.5274809,74.1025819 C1.60255275,74.2484429 0.00011069719,76.0279464 0.000824162037,78.6342325 C0.00153762689,79.7406411 0.323310273,81.1380601 0.884093644,81.0953691 C1.44630394,81.0526781 1.6054066,80.2507987 3.93201547,80.075054 L25.5435792,78.4392769 C26.2242246,78.4143738 26.7707387,78.9174162 26.7714522,79.5947802 L26.7785868,93.919748 C26.7800138,95.5590827 28.7934116,96.22862 29.9706286,94.979908 L45.8701927,78.1105561 C46.6036346,77.3321567 47.598918,76.8504598 48.6362959,76.772193 L113.050043,71.8968799 L145.47488,69.6207376 C147.399808,69.4748767 149.00225,67.6953731 149.000823,65.0890871 C149.000823,63.9826784 148.67905,62.5852594 148.118267,62.6279504" id="Fill-1"></path>
                <path d="M145.071709,42.0642933 C146.077852,36.8740798 150.603709,40.4535374 149.933424,43.188243 C148.424566,47.8315153 144.317638,56.6183678 136.690997,57.2225802 C130.0705,57.7466128 125.712215,50.5511872 125.712215,45.0216411 C125.712215,42.4243867 133.507143,39.1269904 133.507143,31.4182706 C133.507143,29.323572 132.417214,27.9855708 130.82457,28.1115677 C128.812999,28.2712115 125.041929,31.250752 122.443859,40.3368471 L122.443859,54.7477433 C122.443859,56.339886 122.527644,58.3436663 120.097145,58.5362411 C118.431458,58.6686811 116.106944,58.2706454 116.077583,55.2238111 C114.239312,57.5082209 111.817406,59.1919978 108.615649,59.4454234 C104.677008,59.7568362 99.9835802,57.9506419 99.9835802,50.5776752 C99.9835802,45.2156477 101.809677,41.1329184 104.491534,33.7155664 L96.8827957,32.3066919 C96.7990101,35.5811797 96.2962963,42.9097612 94.7874387,47.8887867 C94.7616586,47.9754095 94.7251366,48.0419874 94.6950597,48.1214514 C93.1811894,53.6939509 89.8204546,60.9337618 82.8870144,61.4821347 C79.9538012,61.7140836 77.690873,60.4691482 76.4333723,58.5577179 C74.7576597,60.6173378 72.4109458,62.3111371 69.2263757,62.5638468 C65.4374032,62.8638054 62.6982575,61.2151072 61.0576345,58.3973582 C58.8878015,61.2580607 55.9510076,63.6147756 52.1298099,63.9175977 C45.6768839,64.4280283 42.2402407,60.259392 42.2402407,53.640975 L42.2402407,24.1061546 C40.4857553,25.6073792 38.5515245,26.9711525 37.128601,27.6533971 C37.4637436,29.9736015 37.6313148,32.2222167 37.6313148,34.233156 C37.6313148,55.4299879 28.4127469,65.7953811 18.6069633,66.5714075 C6.37068037,67.5400087 0.000823923884,55.7277987 0.000823923884,40.7305874 C0.000823923884,12.245264 16.9305346,4.36974148 17.6008196,4.06548759 C17.8528927,3.96168332 18.1873191,3.85072013 18.5231777,3.82423215 C20.3664616,3.67819028 21.456391,6.1057784 21.456391,7.94919905 C21.456391,9.03807005 21.1212484,9.902867 20.3664616,9.96228599 C20.1988904,9.97588793 20.1151047,9.98304685 19.9475335,9.9114577 C17.0143202,11.8193086 6.7058229,17.9144089 6.7058229,39.3625187 C6.7058229,54.5265328 12.9081081,60.7383234 18.8583202,60.2679827 C25.81396,59.7167463 31.0101015,50.4244744 31.0946032,34.7500297 C31.0946032,33.1586028 31.0101015,31.4061004 30.8425302,29.6593251 L29.2506032,29.785322 C22.2942473,30.3358426 16.6791777,26.6754893 16.6791777,20.2245909 C16.6791777,15.8669592 19.7799622,12.0190423 24.3058186,11.6610966 C30.423602,11.1771539 33.9440309,15.7574278 35.7873148,21.4759692 C38.1068162,20.3906777 40.8638648,17.7196864 42.2402407,16.2549724 L42.2402407,15.5197518 C42.2402407,9.236372 45.6768839,4.52365816 49.8668817,4.19220039 C57.2414496,3.60803291 57.3259514,12.3991807 57.3259514,17.0897019 C57.3259514,29.4066154 49.6993104,46.9337874 48.6093811,48.0255219 L48.6093811,52.8849935 C48.6093811,56.2360817 49.9506673,58.5598656 53.0514518,58.3143148 C55.7726946,58.0995473 57.9883591,55.2932526 59.3246326,52.3437795 C59.2823817,51.8075768 59.2530209,51.2627834 59.2530209,50.7022403 C59.2530209,36.7108565 68.9750188,27.3949603 79.1997305,26.585287 C81.4619425,26.4063141 83.0545857,27.6204661 83.0545857,29.798924 C83.0545857,31.2235481 82.8032288,31.7461489 81.9653725,31.8120109 C81.2113018,31.8721458 80.3727293,31.7704892 79.534873,31.8370671 C73.1657327,32.3410547 65.7059469,38.3781679 65.7059469,50.4416558 C65.7059469,54.7992874 67.5499469,57.1667407 70.4838763,56.9347918 C72.7460884,56.755819 74.2549459,54.6246099 75.1765878,52.2056125 L75.1765878,39.3038156 C75.1765878,37.7116729 74.8414453,37.235605 74.8414453,36.6492899 C74.8414453,35.8116968 75.847589,35.1452018 77.0205879,35.0521359 C79.7862299,34.833789 81.5464443,36.3693763 81.5464443,38.3810314 L81.5464443,52.2041807 C81.5464443,54.0476014 82.3843006,55.9919627 84.3958719,55.8337507 C87.7480134,55.5681549 89.2568709,50.0858577 90.0109416,46.3403133 C90.0252639,46.2651447 90.0453152,46.2021462 90.0610697,46.1305571 C90.0732437,46.058252 90.075392,45.9873788 90.0940111,45.9143579 C91.0163692,42.4902487 91.3507956,35.5095906 91.4352973,31.2299911 C89.3399404,30.2227317 87.8310829,28.5833402 87.8310829,26.1536044 C87.8310829,23.806912 89.8426542,22.1396007 92.0217967,21.9677867 C94.0326519,21.8081429 96.3793658,22.6278387 97.3010077,25.9896652 C101.181643,26.5151296 106.419319,27.614739 106.419319,27.614739 C108.629255,28.0671824 110.777605,30.0344523 110.442462,31.9881202 C110.442462,32.9932319 106.352721,41.1916215 106.352721,49.5704158 C106.352721,51.9163923 107.44265,54.0089432 109.705578,53.8292544 C113.560433,53.5242847 114.985505,48.0498622 115.739576,44.3028861 C115.822645,43.8597492 115.937224,43.4767472 116.074718,43.1488689 L116.074718,4.89878531 C116.074718,2.46904951 115.236146,2.36810881 115.236146,1.78179366 C115.236146,1.19476261 116.745003,0.740887395 117.918002,0.647821498 C120.68436,0.428758694 122.443859,1.96506188 122.443859,3.97600115 L122.443859,30.1160639 C125.125715,26.2173187 128.478573,22.6843941 132.249642,22.3858673 C137.445784,21.9742297 139.708712,26.1521726 139.708712,30.8434097 C139.708712,37.295024 135.015284,42.442284 131.662427,45.1368997 C132.500999,48.6734038 134.344283,51.8784501 137.613355,51.6200132 C141.46821,51.3150434 144.317638,45.8105536 145.071709,42.0642933 Z M28.9992463,24.024543 L30.0046739,23.9457949 C29.1668176,20.1580129 27.4903888,17.4419205 24.892318,17.6473814 C23.2158893,17.7798213 22.7969611,18.9860985 22.7969611,19.9081668 C22.7969611,21.9183902 24.6409611,24.3696027 28.9992463,24.024543 Z M48.6093811,13.1723435 L48.6093811,37.0501891 C50.3695955,33.3919835 52.1298099,22.1932925 52.1298099,17.5858147 C52.1298099,12.0555528 51.2081679,9.6157945 49.8668817,9.72174644 C48.9452397,9.79476738 48.6093811,11.8321946 48.6093811,13.1723435 Z" id="Fill-4"></path>
            </g>
        </g>
    </g>
</svg>
