<svg width="600" height="125" viewBox="0 0 600 125" fill="none" xmlns="http://www.w3.org/2000/svg">
<path d="M22.9938 85.1173V99.9976C22.9938 102.028 21.3477 103.674 19.3172 103.674H3.67659C1.64606 103.674 0 102.028 0 99.9976V20.1097C0 18.0792 1.64606 16.4331 3.67659 16.4331H19.3172C21.3477 16.4331 22.9938 18.0792 22.9938 20.1097C22.9938 23.2894 26.746 24.955 29.1244 22.8446C34.3365 18.2197 39.6737 15.0806 45.9875 15.0806C57.2138 15.0806 63.3005 24.278 63.3005 47.6776C63.3005 72.8353 50.8567 82.1681 34.8963 82.1681C32.3678 82.1681 29.8391 81.9433 27.2743 81.4937C25.0369 81.1016 22.9938 82.8458 22.9938 85.1173ZM37.3002 64.5235C38.5861 64.1476 39.5716 63.1191 39.876 61.8144C40.6526 58.4851 41.1182 54.4431 41.1182 49.8418C41.1182 37.8039 38.1425 34.828 31.7854 34.828C30.3567 34.828 28.3889 34.9821 26.4632 35.6969C25.3208 36.1209 24.4542 37.0798 24.1608 38.2625C23.3828 41.3994 22.9938 44.6633 22.9938 48.2185V61.8427C22.9938 63.8502 24.6054 65.4955 26.6128 65.52C27.5439 65.5314 28.4604 65.5314 29.3507 65.5314C32.1413 65.5314 34.9321 65.2156 37.3002 64.5235Z" fill="#176BFF"/>
<path d="M148.477 88.0378L148.022 76.4704C147.94 74.4033 149.6 72.6727 151.669 72.6876C156.226 72.7205 160.169 73.1667 163.651 73.9685C165.981 74.5051 168.176 72.6689 168.082 70.2797L166.753 36.4574C166.637 33.5248 163.252 31.8992 160.931 33.6945C158.74 35.3884 156.412 36.8375 153.967 38.0618C152.113 38.9904 149.856 38.1477 149.028 36.247L143.885 24.4539C143.038 22.5126 144.022 20.2612 146.023 19.5645L174.653 9.59045C174.992 9.47216 175.347 9.40487 175.707 9.39078L185.045 9.02362C187.053 8.94467 188.744 10.5082 188.823 12.5157L190.982 67.4157C191.061 69.4233 192.752 70.9868 194.759 70.9078L203.978 70.5454C205.986 70.4664 207.677 72.0299 207.756 74.0375L208.214 85.6891C208.293 87.6966 206.729 89.3881 204.722 89.467L152.254 91.5298C150.247 91.6088 148.555 90.0454 148.477 88.0378Z" fill="#176BFF"/>
<path d="M219.883 121.148L218.169 106.66C217.952 104.826 219.453 103.25 221.295 103.375C225.081 103.634 229.447 103.499 232.866 103.094C235.899 102.735 238.897 102.072 241.936 101.006C242.816 100.698 243.502 99.9998 243.795 99.1148C244.356 97.4185 244.812 95.7677 245.192 94.1729C245.665 92.1842 244.004 90.3352 241.974 90.5754L229.761 92.0205C228.429 92.178 227.16 91.4171 226.671 90.1689L207.426 41.0397C206.722 39.2427 207.907 37.2654 209.823 37.0386L228.42 34.8382C229.843 34.6698 231.182 35.5504 231.59 36.9246L238.122 58.8877C239.436 63.2056 240.654 67.5349 241.858 71.866C242.247 73.2669 243.599 74.175 245.043 74.0042C246.515 73.83 247.634 72.5894 247.643 71.1073C247.675 66.1819 247.825 61.4258 248.085 56.7552L249.042 34.8883C249.105 33.4451 250.205 32.2605 251.639 32.0908L269.937 29.9257C271.855 29.6988 273.47 31.3482 273.201 33.2613L265.089 91.1091C262.132 112.161 255.934 120.794 235.115 123.258C231.95 123.632 227.147 124.007 222.658 123.747C221.224 123.664 220.052 122.575 219.883 121.148Z" fill="#176BFF"/>
<path d="M302.079 90.2098H286.129C284.184 90.2098 282.607 88.6329 282.607 86.6877V29.0789C282.607 27.1336 284.184 25.5567 286.129 25.5567H302.079C304.024 25.5567 305.601 27.1337 305.601 29.0789C305.601 32.1608 309.302 33.7794 311.529 31.6494C316.29 27.0971 321.296 24.2041 327.783 24.2041C333.694 24.2041 339.093 26.937 342.011 33.2167C343.071 35.4972 346.094 35.9723 347.801 34.1259C353.33 28.1458 358.848 24.2041 366.467 24.2041C375.394 24.2041 382.968 30.2908 382.968 45.4395V86.6877C382.968 88.6329 381.391 90.2098 379.446 90.2098H363.497C361.552 90.2098 359.975 88.6329 359.975 86.6877V51.9317C359.975 46.9274 357.81 44.2223 353.482 44.2223C351.18 44.2223 348.988 45.0899 346.32 47.2142C345.68 47.7245 345.24 48.4494 345.073 49.2511C344.285 53.0201 344.285 57.3035 344.285 61.806V86.6877C344.285 88.633 342.708 90.2099 340.762 90.2099H324.813C322.868 90.2099 321.291 88.6329 321.291 86.6877V51.9317C321.291 46.9275 319.127 44.2223 314.798 44.2223C312.497 44.2223 310.304 45.09 307.637 47.2143C306.996 47.7245 306.557 48.4495 306.389 49.2512C305.601 53.0201 305.601 57.3035 305.601 61.806V86.6878C305.601 88.633 304.024 90.2098 302.079 90.2098Z" fill="#176BFF"/>
<path d="M429.563 96.8567C428.818 95.0894 426.567 94.5159 425.153 95.8122C419.727 100.788 413.953 102.79 406.546 102.091C396.447 101.138 387.883 95.4381 389.205 81.4335C390.196 70.9303 396.736 63.532 413.434 65.1083L427.247 66.4122C428.766 66.5556 430.113 65.4405 430.257 63.9215L430.531 61.0165C431.129 54.6872 429.292 51.1173 423.771 50.5961C423.069 50.5298 422.136 50.4874 421.129 50.5099C419.764 50.5405 418.626 51.5487 418.433 52.8999C418.307 53.7836 418.222 54.6893 418.133 55.6342L418.023 56.7889C417.88 58.3079 416.532 59.423 415.013 59.2796L397.49 57.6254C395.983 57.4831 394.864 56.1519 394.996 54.6438C395.019 54.3776 395.044 54.1172 395.068 53.8642C396.453 39.1869 405.265 33.6331 426.137 35.6034C445.259 37.4085 454.946 44.1648 453.599 58.439L450.955 86.4481C450.751 88.6022 451.336 89.6086 453.894 89.8502C453.902 89.851 453.91 89.8517 453.919 89.8524C455.458 89.9927 456.608 91.3272 456.463 92.8665L455.487 103.199C455.363 104.511 454.333 105.559 453.021 105.688C450.715 105.915 447.499 105.957 444.521 105.676C437.264 104.991 431.981 102.59 429.563 96.8567ZM427.008 84.8805C427.91 82.2873 428.531 79.5038 428.97 76.5067C429.244 74.6399 427.622 73.0373 425.765 73.3715C422.338 73.988 418.497 74.1796 415.225 74.268C413.948 74.3025 412.854 75.2062 412.599 76.4582C412.279 78.0265 412.069 79.5689 411.947 80.8632C411.578 84.7688 413.042 86.537 419.101 87.109C421.124 87.3 423.263 87.1623 425.118 86.6584C426.004 86.4176 426.706 85.7478 427.008 84.8805Z" fill="#176BFF"/>
<path d="M557.418 90.1766L543.622 91.5872C541.115 91.8434 538.875 90.0191 538.619 87.5124L530.33 6.43746C530.073 3.93071 531.898 1.69087 534.404 1.43455L548.201 0.0240102C550.708 -0.232256 552.948 1.59209 553.204 4.0988L555.503 26.5886C555.902 30.4899 560.679 32.0529 563.376 29.2058C567.261 25.1042 571.592 22.3776 577.311 21.793C586.192 20.885 594.346 26.1698 595.886 41.2399L599.976 81.2392C600.232 83.746 598.408 85.9858 595.901 86.2421L582.105 87.6527C579.598 87.9089 577.358 86.0846 577.102 83.5779L573.673 50.0371C573.164 45.0588 570.735 42.5878 566.429 43.028C564.254 43.2505 562.255 44.2424 559.97 46.3868C559.163 47.144 558.637 48.166 558.538 49.2681C558.203 52.9982 558.625 57.1252 559.068 61.456L561.493 85.1737C561.749 87.6805 559.925 89.9203 557.418 90.1766Z" fill="#176BFF"/>
<path d="M146.814 55.9852C146.928 59.7971 141.416 62.0502 140.616 64.2497C139.816 66.4491 143.082 73.4473 141.149 76.4465C139.216 79.4457 134.018 79.8456 132.151 81.7117C130.285 83.5779 129.152 90.1095 126.02 91.1093C122.887 92.109 117.955 90.2429 115.889 90.776C113.823 91.3092 112.09 95.908 108.358 95.9747C104.625 96.0413 101.378 91.0694 97.8937 90.5094C94.1614 89.9096 89.4293 93.642 86.4301 91.8424C83.4309 90.0429 84.2307 84.1111 81.8313 81.7117C79.432 79.3124 73.7667 78.7792 72.0339 75.3801C70.301 71.981 74.3666 68.7152 73.5668 65.6493C72.767 62.5834 67.1018 60.7839 67.1018 56.785C67.1018 52.786 71.3674 51.3864 72.0339 48.7204C72.7004 46.0544 70.2344 39.0563 71.634 36.1903C73.0336 33.3244 77.5658 34.3242 79.432 32.5913C81.2981 30.8584 82.7644 25.1932 86.0302 23.3937C89.296 21.5942 94.428 23.4603 96.8274 22.6605C99.2267 21.8607 103.026 16.7954 106.958 16.7954C110.89 16.7954 114.976 21.8625 116.689 22.194C118.755 22.5939 122.96 19.215 125.477 20.5118C129.876 22.7779 131.482 30.114 133.551 31.7915C136.017 33.7909 140.882 34.4575 141.816 38.0565C142.749 41.6555 140.216 42.7886 140.816 45.7212C141.416 48.6537 146.681 51.5197 146.814 55.9852Z" fill="#F9D4D2"/>
<path d="M98.9584 34.7413C104.429 34.7413 108.661 39.4638 108.661 44.8876C108.661 50.3115 105.06 52.8598 103.821 53.5845C101.787 53.0001 97.8363 53.3508 95.7789 53.7949C92.6462 52.5091 89.7939 48.8153 89.7939 44.1161C89.7939 39.417 93.7449 34.7413 98.9584 34.7413Z" fill="white"/>
<path d="M117.895 34.8113C123.623 34.8113 127.317 39.6975 127.317 44.9577C127.317 48.8152 125.797 52.1584 122.033 54.1222C119.368 53.2572 115.487 53.1637 113.172 53.7949C110.601 51.8544 108.356 49.8672 108.356 44.5369C108.356 39.2065 112.424 34.8113 117.895 34.8113Z" fill="white"/>
<path d="M118.3 38.6221C122.041 38.6221 124.049 41.8593 124.049 45.7245C124.049 49.5898 121.663 52.4935 118.297 52.4935C114.93 52.4935 112.734 49.3561 112.734 45.3037C112.734 41.2514 115.246 38.6221 118.3 38.6221Z" fill="black"/>
<path d="M99.2234 38.9026C102.715 38.9026 105.084 42.0307 105.084 45.7292C105.084 49.3763 102.652 52.4311 99.2234 52.4311C95.9192 52.4311 93.7995 49.5119 93.7995 45.6669C93.7995 42.5497 95.6075 38.9026 99.2234 38.9026Z" fill="black"/>
<path d="M124.348 32.9175C121.449 31.1719 118.872 30.867 115.214 31.8576C112.222 32.6681 110.254 28.909 113.656 27.4624C117.615 25.7791 124.161 26.5273 127.527 29.8315C129.431 31.7002 127.417 34.7658 124.348 32.9175Z" fill="black"/>
<path d="M105.146 26.4963C100.907 25.717 97.6024 25.7482 94.2358 27.5562C90.8693 29.3642 89.7627 25.8262 91.9291 24.0026C95.574 20.9346 102.746 20.1685 106.486 23.1921C108.8 25.0621 107.125 26.8601 105.146 26.4963Z" fill="black"/>
<path d="M105.988 53.4908C108.263 50.7166 110.975 50.224 112.877 51.9946C113.781 52.8362 113.732 55.0501 112.44 56.5768C112.097 56.982 111.349 56.5612 111.614 55.7819C111.879 55.0026 112.471 53.8493 111.567 53.1323C110.663 52.4154 108.919 52.4659 106.938 54.2545C106.455 54.6909 105.464 54.1296 105.988 53.4908Z" fill="black"/>
<path d="M98.4908 57.8238C100.112 57.8238 101.39 58.6343 101.39 60.6292C101.39 61.9228 100.361 63.3723 97.9297 63.3723C96.2153 63.3723 95.2178 62.141 95.2178 60.7539C95.2178 59.3667 96.3555 57.8238 98.4908 57.8238Z" fill="#FF7348"/>
<path d="M112.128 60.6292C113.921 60.6292 115.308 62.4839 115.308 64.0736C115.308 65.414 114.311 66.0998 113.235 66.0998C111.536 66.0998 109.775 64.4165 109.775 62.9359C109.775 61.4708 110.757 60.6292 112.128 60.6292Z" fill="#FF7348"/>
<path d="M111.271 63.762C109.261 66.2246 105.879 68.5936 103.058 67.6585C100.236 66.7233 99.426 63.8711 99.2234 61.5644C99.1252 60.4464 97.7895 60.411 97.7739 61.6735C97.7408 64.3548 98.9584 68.391 102.715 69.482C106.471 70.5731 110.657 67.811 112.316 64.4945C112.69 63.7464 111.892 63.0022 111.271 63.762Z" fill="black"/>
<path d="M494.259 89.5158C488.465 90.3735 484.651 90.0944 482.925 88.6868C482.273 88.1552 481.933 87.4653 481.883 86.5777C481.82 85.4395 481.859 84.2622 481.896 83.1238C481.942 81.7165 481.99 80.2612 481.85 78.8278C481.814 78.4545 481.783 78.0758 481.752 77.6961C481.411 73.5562 480.987 68.4037 472.634 68.9131C469.661 69.0944 467.351 69.432 465.494 69.7033C461.622 70.2692 460.476 70.3636 459.81 68.8192C459.455 67.9944 457.316 58.1127 457.844 52.1116C458.078 49.4546 459.712 47.9377 462.842 47.4746C466.394 46.9491 470.999 47.9378 473.75 48.5289C474.13 48.6103 474.478 48.685 474.786 48.7482C475.218 48.8364 475.648 48.8499 476.064 48.7883C477.79 48.533 478.869 47.1005 478.631 45.3822C478.601 45.164 478.523 44.7847 478.404 44.2108C477.763 41.1033 475.811 31.6464 478.332 28.0393C478.875 27.2635 479.58 26.821 480.489 26.6865C480.588 26.6719 480.689 26.6609 480.793 26.6537C481.26 26.5818 481.686 26.5168 482.119 26.4528C488.328 25.5341 495.987 24.8325 496.5 24.836C500.506 24.8865 501.326 26.7479 501.388 29.9466C501.43 32.1171 501.518 34.3205 501.603 36.4515L501.677 38.324C501.695 38.7948 501.725 39.265 501.754 39.7354C501.793 40.3424 501.832 40.9703 501.843 41.5821C501.87 42.9993 502.239 43.9902 502.973 44.6115C503.719 45.2439 504.809 45.4438 506.302 45.2228C507.889 44.988 509.8 44.3113 511.822 43.5948C514.126 42.7788 516.507 41.9354 518.733 41.606C522.062 41.1134 524.232 41.9202 525.563 44.1447C526.819 46.2442 527.506 52.9574 527.714 56.5929C528.124 63.7891 524.533 65.1598 521.796 65.5651C519.623 65.8866 517.091 65.6469 514.857 65.4354C512.92 65.2521 511.09 65.079 509.71 65.2832C508.321 65.4886 507.475 66.0625 507.123 67.0376C506.566 68.5826 506.518 70.246 506.976 72.1227C509.99 84.47 509.802 85.1661 506.965 86.7971C506.407 86.9239 505.707 87.095 504.9 87.2924C502.221 87.9472 498.173 88.9367 494.259 89.5158Z" fill="#176BFF"/>
</svg>
