<svg width="185" height="33" viewBox="0 0 185 33" fill="none" xmlns="http://www.w3.org/2000/svg">
<path d="M51.229 16.0687C51.229 12.5244 49.1607 10.5865 44.8949 10.5865H39.0002V28.4357H43.4212V21.8315H44.7656L47.9973 28.4357H52.8837C48.6954 20.735 48.7212 20.786 48.7212 20.786C50.3759 19.8936 51.229 18.0322 51.229 16.0687ZM44.5329 14.3348C46.1359 14.3348 46.7046 15.0488 46.7046 16.2217C46.7046 17.4457 45.9549 18.1851 44.7398 18.1851H43.4212V14.3348H44.5329ZM67.473 22.8514C67.4989 22.5455 67.4989 22.265 67.4989 22.01C67.4989 17.4457 65.1462 14.7173 60.8286 14.7173C56.8471 14.7173 54.1584 17.8537 54.1584 21.7805C54.1584 25.7328 56.8988 28.7672 61.3715 28.7672C64.8876 28.7672 66.7491 26.5998 67.1369 25.8093L64.293 23.6419C64.0345 24.0244 63.0779 25.0698 61.4491 25.0698C59.8462 25.0698 58.6828 24.0499 58.5793 22.8514H67.473ZM60.9062 18.1596C62.2506 18.1596 63.052 19.0776 63.1037 20.1486H58.7086C58.812 19.2051 59.4842 18.1596 60.9062 18.1596ZM69.0364 24.2794C69.0364 27.1863 71.4149 28.7672 74.0779 28.7672C75.474 28.7672 76.4564 28.3847 77.1545 27.6962L77.3871 28.4357H81.2393V20.1486C81.2393 17.0887 80.0501 14.7173 75.3705 14.7173C73.1213 14.7173 71.2857 15.4313 69.8379 16.3747L71.4408 19.2306C72.5008 18.7206 73.6642 18.3891 74.8535 18.3891C76.2496 18.3891 76.9218 19.0266 76.9218 19.8426V20.3271C76.4305 20.1231 75.4998 19.8426 74.3105 19.8426C71.1047 19.8426 69.0364 21.602 69.0364 24.2794ZM73.354 24.1264C73.354 23.2594 74.1296 22.6984 75.1637 22.6984C76.1979 22.6984 76.9993 23.2084 76.9993 24.1264C76.9993 25.0188 76.2237 25.5033 75.1896 25.5033C74.1813 25.5033 73.354 25.0188 73.354 24.1264ZM93.5977 21.7805C93.5977 23.5654 92.5377 25.0443 90.6762 25.0443C88.944 25.0443 87.7548 23.7694 87.7548 21.7805C87.7548 19.8171 88.9182 18.4656 90.6762 18.4656C92.3826 18.4656 93.5977 19.6641 93.5977 21.7805ZM93.7528 28.4357H97.786V10H93.4684V16.0687C93.1841 15.7373 91.9172 14.7173 89.8489 14.7173C85.9192 14.7173 83.4372 17.5987 83.4372 21.755C83.4372 25.8603 86.1777 28.7672 90.0816 28.7672C92.0723 28.7672 93.365 27.8237 93.7528 27.3902V28.4357ZM112.286 14.4878V10.5865H100.057V14.4878H103.961V28.4357H108.382V14.4878H112.286ZM122.564 28.4357H126.882V21.0155C126.882 18.2871 126.468 14.7173 122.228 14.7173C120.522 14.7173 119.384 15.6353 118.867 16.4257V10H114.55V28.4357H118.867V20.4545C118.867 19.3836 119.591 18.5421 120.781 18.5421C121.815 18.5421 122.564 19.2051 122.564 20.4545V28.4357ZM142.45 22.8514C142.476 22.5455 142.476 22.265 142.476 22.01C142.476 17.4457 140.123 14.7173 135.806 14.7173C131.824 14.7173 129.136 17.8537 129.136 21.7805C129.136 25.7328 131.876 28.7672 136.349 28.7672C139.865 28.7672 141.726 26.5998 142.114 25.8093L139.27 23.6419C139.012 24.0244 138.055 25.0698 136.426 25.0698C134.823 25.0698 133.66 24.0499 133.557 22.8514H142.45ZM135.883 18.1596C137.228 18.1596 138.029 19.0776 138.081 20.1486H133.686C133.789 19.2051 134.461 18.1596 135.883 18.1596ZM144.04 21.7805C144.04 25.8093 147.09 28.7672 151.408 28.7672C155.699 28.7672 158.854 25.7583 158.854 21.7295C158.854 17.6752 155.777 14.7173 151.408 14.7173C147.219 14.7173 144.04 17.7262 144.04 21.7805ZM148.357 21.7805C148.357 19.8171 149.624 18.4656 151.408 18.4656C153.166 18.4656 154.536 19.7661 154.536 21.7295C154.536 23.6419 153.192 25.0188 151.408 25.0188C149.65 25.0188 148.357 23.7184 148.357 21.7805ZM168.99 14.7173C167.31 14.7173 166.043 15.5333 165.397 16.8337V15.0488H161.183V28.4357H165.5V22.52C165.5 20.5055 166.198 19.0011 168.292 19.0011C168.603 19.0011 168.809 19.0266 168.99 19.0521V14.7173ZM185 15.0488H180.502L177.994 22.7494L175.59 15.0488H170.962L176.029 28.0022L174.193 33H178.278L185 15.0488Z" fill="#333333"/>
<g filter="url(#filter0_i_9589_36)">
<rect width="6" height="20" rx="1" transform="matrix(-1 0 0 1 30.0002 10)" fill="#F9D923"/>
</g>
<rect opacity="0.4" width="6" height="3.82265" transform="matrix(-1 0 0 1 30.0002 16)" fill="#EAB81D"/>
<rect opacity="0.4" width="6" height="1.91132" transform="matrix(-1 0 0 1 30.0002 12)" fill="#EAB81D"/>
<g filter="url(#filter1_i_9589_36)">
<rect width="5" height="16" rx="1" transform="matrix(-1 0 0 1 13.0002 14)" fill="#ED692D"/>
</g>
<g filter="url(#filter2_i_9589_36)">
<rect x="1.86206" y="16.0161" width="5.09686" height="13.3793" rx="1" transform="rotate(8 1.86206 16.0161)" fill="#32BACA"/>
</g>
<rect opacity="0.4" x="1.77783" y="20.4761" width="4.55188" height="4.04793" transform="rotate(8 1.77783 20.4761)" fill="#2B9EAC"/>
<rect opacity="0.4" width="5" height="1.27422" transform="matrix(-1 0 0 1 13.0002 27)" fill="#C54F2D"/>
<rect opacity="0.4" width="5" height="3" transform="matrix(-1 0 0 1 13.0002 22)" fill="#C54F2D"/>
<g filter="url(#filter3_i_9589_36)">
<rect width="5" height="14.6535" rx="1" transform="matrix(-1 0 0 1 21.0002 15)" fill="#93C020"/>
</g>
<rect opacity="0.4" width="5" height="5.09686" transform="matrix(-1 0 0 1 21.0002 18)" fill="#B9E34D"/>
<rect opacity="0.4" width="5" height="1.91132" transform="matrix(-1 0 0 1 21.0002 25)" fill="#B9E34D"/>
<path opacity="0.5" d="M2.01478 11.8689C1.3901 12.413 1.3248 13.3605 1.86892 13.9852C2.41304 14.6099 3.36054 14.6752 3.98522 14.1311L2.01478 11.8689ZM29.9254 3.1805C30.5774 2.66939 30.6916 1.72654 30.1805 1.07457C29.6694 0.422596 28.7265 0.308401 28.0746 0.819504L29.9254 3.1805ZM14.1237 8.6215L13.3846 9.9268L14.1237 8.6215ZM14.3611 8.7559L13.622 10.0612L14.3611 8.7559ZM21.9444 9.43715L29.9254 3.1805L28.0746 0.819504L20.0935 7.07615L21.9444 9.43715ZM3.98522 14.1311L8.21189 10.4495L6.24145 8.18732L2.01478 11.8689L3.98522 14.1311ZM13.3846 9.9268L13.622 10.0612L15.1001 7.45059L14.8627 7.31619L13.3846 9.9268ZM8.21189 10.4495C9.65088 9.19606 11.724 8.98658 13.3846 9.9268L14.8627 7.31619C12.095 5.74915 8.63978 6.09828 6.24145 8.18732L8.21189 10.4495ZM20.0935 7.07615C18.6586 8.20103 16.6867 8.3489 15.1001 7.45059L13.622 10.0612C16.2664 11.5584 19.5528 11.3119 21.9444 9.43715L20.0935 7.07615Z" fill="#32BACA"/>
<defs>
<filter id="filter0_i_9589_36" x="24.0002" y="10" width="6" height="20" filterUnits="userSpaceOnUse" color-interpolation-filters="sRGB">
<feFlood flood-opacity="0" result="BackgroundImageFix"/>
<feBlend mode="normal" in="SourceGraphic" in2="BackgroundImageFix" result="shape"/>
<feColorMatrix in="SourceAlpha" type="matrix" values="0 0 0 0 0 0 0 0 0 0 0 0 0 0 0 0 0 0 127 0" result="hardAlpha"/>
<feOffset dx="1"/>
<feComposite in2="hardAlpha" operator="arithmetic" k2="-1" k3="1"/>
<feColorMatrix type="matrix" values="0 0 0 0 0 0 0 0 0 0 0 0 0 0 0 0 0 0 0.15 0"/>
<feBlend mode="normal" in2="shape" result="effect1_innerShadow_9589_36"/>
</filter>
<filter id="filter1_i_9589_36" x="8.00024" y="14" width="5" height="16" filterUnits="userSpaceOnUse" color-interpolation-filters="sRGB">
<feFlood flood-opacity="0" result="BackgroundImageFix"/>
<feBlend mode="normal" in="SourceGraphic" in2="BackgroundImageFix" result="shape"/>
<feColorMatrix in="SourceAlpha" type="matrix" values="0 0 0 0 0 0 0 0 0 0 0 0 0 0 0 0 0 0 127 0" result="hardAlpha"/>
<feOffset dx="1"/>
<feComposite in2="hardAlpha" operator="arithmetic" k2="-1" k3="1"/>
<feColorMatrix type="matrix" values="0 0 0 0 0 0 0 0 0 0 0 0 0 0 0 0 0 0 0.15 0"/>
<feBlend mode="normal" in2="shape" result="effect1_innerShadow_9589_36"/>
</filter>
<filter id="filter2_i_9589_36" x="0.129395" y="16.1455" width="6.65063" height="13.6997" filterUnits="userSpaceOnUse" color-interpolation-filters="sRGB">
<feFlood flood-opacity="0" result="BackgroundImageFix"/>
<feBlend mode="normal" in="SourceGraphic" in2="BackgroundImageFix" result="shape"/>
<feColorMatrix in="SourceAlpha" type="matrix" values="0 0 0 0 0 0 0 0 0 0 0 0 0 0 0 0 0 0 127 0" result="hardAlpha"/>
<feOffset dx="1"/>
<feComposite in2="hardAlpha" operator="arithmetic" k2="-1" k3="1"/>
<feColorMatrix type="matrix" values="0 0 0 0 0 0 0 0 0 0 0 0 0 0 0 0 0 0 0.15 0"/>
<feBlend mode="normal" in2="shape" result="effect1_innerShadow_9589_36"/>
</filter>
<filter id="filter3_i_9589_36" x="16.0002" y="15" width="5" height="14.6533" filterUnits="userSpaceOnUse" color-interpolation-filters="sRGB">
<feFlood flood-opacity="0" result="BackgroundImageFix"/>
<feBlend mode="normal" in="SourceGraphic" in2="BackgroundImageFix" result="shape"/>
<feColorMatrix in="SourceAlpha" type="matrix" values="0 0 0 0 0 0 0 0 0 0 0 0 0 0 0 0 0 0 127 0" result="hardAlpha"/>
<feOffset dx="1"/>
<feComposite in2="hardAlpha" operator="arithmetic" k2="-1" k3="1"/>
<feColorMatrix type="matrix" values="0 0 0 0 0 0 0 0 0 0 0 0 0 0 0 0 0 0 0.15 0"/>
<feBlend mode="normal" in2="shape" result="effect1_innerShadow_9589_36"/>
</filter>
</defs>
</svg>
