<svg xmlns="http://www.w3.org/2000/svg" version="1.0" preserveAspectRatio="xMidYMid meet" viewBox="62.9 31 285.1 136.4">

<g transform="translate(0.000000,190.000000) scale(0.100000,-0.100000)" fill="#000000" stroke="none">
<path d="M2050 908 l0 -682 127 127 127 127 453 0 453 0 0 555 0 555 -580 0 -580 0 0 -682z m289 398 c7 -8 11 -34 9 -58 l-3 -43 -59 -3 c-41 -2 -62 1 -67 10 -13 20 -11 82 3 96 17 17 103 15 117 -2z m221 -81 l0 -55 46 0 45 0 -3 -47 -3 -48 -42 -3 -43 -3 0 -97 c0 -53 4 -102 8 -109 4 -7 25 -19 45 -28 36 -15 38 -18 35 -53 l-3 -37 -55 -3 c-71 -3 -120 21 -137 69 -7 19 -12 85 -12 147 l-1 112 -30 0 c-28 0 -30 2 -30 40 0 34 3 40 26 46 27 7 44 38 44 83 0 37 6 41 62 41 l48 0 0 -55z m-222 -267 l-3 -213 -55 0 -55 0 -3 200 c-1 110 0 205 2 212 4 8 25 13 61 13 l55 0 -2 -212z"/>
<path d="M3285 1035 l0 -365 38 0 37 0 0 365 0 365 -37 0 -38 0 0 -365z"/>
<path d="M714 1214 c-3 -30 -12 -57 -18 -59 -6 -2 -23 -6 -38 -9 -45 -10 -35 -36 12 -36 l40 0 0 -135 c0 -184 17 -215 114 -215 60 0 64 25 6 35 -70 12 -80 36 -80 186 l0 129 60 0 c53 0 60 2 60 20 0 17 -7 20 -44 20 -70 0 -76 5 -76 66 0 40 -4 54 -14 54 -10 0 -17 -17 -22 -56z"/>
<path d="M1816 1239 c-3 -17 -6 -42 -6 -56 0 -24 -4 -27 -52 -37 -44 -10 -35 -36 11 -36 l40 0 3 -151 3 -151 28 -24 c22 -18 40 -24 78 -24 61 0 63 19 4 35 -67 19 -75 39 -75 186 l0 129 60 0 c53 0 60 2 60 20 0 17 -7 20 -44 20 -70 0 -76 5 -76 66 0 61 -23 77 -34 23z"/>
<path d="M3440 1060 c0 -183 1 -190 20 -190 19 0 20 7 20 190 0 183 -1 190 -20 190 -19 0 -20 -7 -20 -190z"/>
<path d="M1042 1151 c-75 -19 -96 -69 -90 -214 7 -158 24 -177 156 -177 101 0 152 9 152 26 0 11 -24 14 -113 14 -132 0 -146 8 -154 85 l-6 45 102 0 c127 0 166 14 173 61 10 61 -4 120 -33 142 -30 22 -132 32 -187 18z m159 -51 c15 -8 19 -21 19 -60 0 -65 -14 -72 -133 -68 -88 3 -92 4 -95 27 -5 34 6 69 28 91 16 16 34 20 91 20 39 0 79 -5 90 -10z"/>
<path d="M1350 1143 c0 -3 14 -24 30 -47 17 -23 47 -62 66 -89 l35 -48 -35 -49 c-20 -28 -52 -72 -72 -100 l-36 -50 29 0 c23 0 36 12 78 73 28 39 56 72 62 72 10 0 59 -60 96 -117 12 -19 26 -28 44 -28 25 0 25 1 10 18 -10 10 -17 22 -17 26 0 4 -22 37 -50 73 -27 36 -50 71 -50 77 0 6 25 45 56 86 79 106 81 110 47 110 -23 -1 -35 -12 -66 -58 -54 -82 -65 -95 -75 -88 -5 3 -31 37 -57 76 -36 54 -53 70 -71 70 -13 0 -24 -3 -24 -7z"/>
</g>
</svg>